<svg id="svg" version="1.1" xmlns="http://www.w3.org/2000/svg" xmlns:xlink="http://www.w3.org/1999/xlink" width="400" height="416.1290322580645" viewBox="0, 0, 400,416.1290322580645"><g id="svgg"><path id="path0" d="M203.000 0.701 C 201.680 1.042,200.510 1.457,200.400 1.622 C 200.290 1.788,199.140 2.119,197.845 2.358 C 196.550 2.597,195.290 2.949,195.045 3.139 C 194.800 3.329,193.702 3.704,192.605 3.972 C 191.508 4.240,190.428 4.605,190.205 4.783 C 189.982 4.962,189.170 5.237,188.400 5.396 C 187.630 5.555,186.460 5.916,185.800 6.199 C 184.093 6.931,180.903 7.983,178.800 8.508 C 177.810 8.755,176.910 9.076,176.800 9.220 C 176.690 9.365,175.610 9.714,174.400 9.994 C 173.190 10.275,172.020 10.641,171.800 10.808 C 171.580 10.975,170.365 11.340,169.100 11.619 C 167.835 11.899,166.800 12.254,166.800 12.409 C 166.800 12.564,165.720 12.920,164.400 13.200 C 163.080 13.480,162.000 13.845,162.000 14.011 C 162.000 14.177,160.830 14.546,159.400 14.830 C 157.970 15.114,156.800 15.471,156.800 15.623 C 156.800 15.776,155.720 16.140,154.400 16.433 C 153.080 16.725,152.000 17.083,152.000 17.228 C 152.000 17.372,150.920 17.720,149.600 18.000 C 148.280 18.280,147.200 18.640,147.200 18.800 C 147.200 18.960,146.120 19.320,144.800 19.600 C 143.480 19.880,142.400 20.241,142.400 20.403 C 142.400 20.564,141.275 20.916,139.900 21.186 C 138.525 21.455,137.220 21.812,137.000 21.980 C 136.780 22.147,135.702 22.504,134.605 22.772 C 133.508 23.040,132.428 23.402,132.205 23.577 C 131.982 23.752,130.854 24.117,129.699 24.388 C 128.543 24.659,127.507 25.027,127.397 25.205 C 127.286 25.384,126.477 25.652,125.598 25.800 C 124.719 25.949,124.000 26.210,124.000 26.381 C 124.000 26.551,122.920 26.920,121.600 27.200 C 120.280 27.480,119.200 27.824,119.200 27.963 C 119.200 28.103,117.990 28.447,116.512 28.727 C 115.034 29.008,113.729 29.377,113.612 29.548 C 113.374 29.897,109.566 31.029,109.100 30.890 C 108.935 30.840,108.800 30.955,108.800 31.145 C 108.800 31.335,107.720 31.720,106.400 32.000 C 105.080 32.280,104.000 32.640,104.000 32.800 C 104.000 32.960,102.920 33.320,101.600 33.600 C 100.280 33.880,99.200 34.249,99.200 34.419 C 99.200 34.590,98.435 34.854,97.500 35.006 C 96.565 35.158,95.260 35.515,94.600 35.799 C 93.940 36.083,91.780 36.797,89.800 37.385 C 87.820 37.974,85.570 38.705,84.800 39.011 C 84.030 39.317,82.590 39.786,81.600 40.053 C 80.610 40.321,79.620 40.665,79.400 40.818 C 79.180 40.971,78.286 41.225,77.414 41.382 C 76.541 41.540,75.365 41.908,74.800 42.200 C 74.235 42.492,73.104 42.857,72.286 43.010 C 71.469 43.164,70.800 43.424,70.800 43.590 C 70.800 43.755,69.720 44.120,68.400 44.400 C 67.080 44.680,66.000 45.036,66.000 45.191 C 66.000 45.346,64.965 45.703,63.700 45.985 C 62.435 46.266,61.310 46.637,61.200 46.809 C 61.090 46.981,60.460 47.219,59.800 47.340 C 59.140 47.460,57.929 47.681,57.108 47.830 C 56.287 47.980,55.701 48.239,55.804 48.406 C 55.907 48.574,54.824 48.931,53.396 49.201 C 51.968 49.470,50.800 49.826,50.800 49.991 C 50.800 50.156,49.720 50.520,48.400 50.800 C 47.080 51.080,46.000 51.440,46.000 51.600 C 46.000 51.760,44.920 52.120,43.600 52.400 C 42.280 52.680,41.200 53.028,41.200 53.172 C 41.200 53.317,40.075 53.678,38.700 53.975 C 37.325 54.272,36.020 54.643,35.800 54.800 C 35.580 54.956,34.502 55.304,33.405 55.572 C 32.308 55.840,31.228 56.198,31.005 56.368 C 30.782 56.537,29.700 56.912,28.600 57.200 C 27.500 57.488,26.420 57.853,26.200 58.010 C 25.980 58.167,24.854 58.517,23.699 58.788 C 22.543 59.059,21.504 59.432,21.389 59.617 C 21.275 59.802,20.377 60.074,19.395 60.222 C 18.412 60.369,17.688 60.618,17.785 60.775 C 17.882 60.932,16.800 61.292,15.381 61.574 C 13.961 61.856,12.800 62.223,12.800 62.389 C 12.800 62.555,11.720 62.920,10.400 63.200 C 9.080 63.480,8.000 63.842,8.000 64.004 C 8.000 64.165,7.246 64.418,6.325 64.566 C 5.404 64.713,4.099 65.071,3.425 65.360 C 2.751 65.650,1.691 66.095,1.069 66.349 C 0.121 66.736,-0.027 66.987,0.151 67.905 C 0.267 68.507,0.483 71.340,0.629 74.200 C 0.776 77.060,0.955 79.721,1.028 80.113 C 1.100 80.505,1.197 81.892,1.245 83.196 C 1.292 84.500,1.481 85.474,1.665 85.360 C 1.849 85.246,2.014 86.468,2.031 88.076 C 2.047 89.684,2.113 91.270,2.177 91.600 C 2.240 91.930,2.413 94.180,2.562 96.600 C 2.840 101.131,2.917 101.775,3.308 102.800 C 3.433 103.130,3.644 105.290,3.776 107.600 C 4.330 117.296,4.507 119.420,4.793 119.800 C 4.959 120.020,5.217 122.270,5.366 124.800 C 5.867 133.317,6.050 135.395,6.405 136.600 C 6.600 137.260,6.882 140.275,7.033 143.300 C 7.184 146.325,7.464 148.800,7.654 148.800 C 7.844 148.800,8.000 148.991,8.000 149.224 C 8.000 149.457,7.832 149.543,7.626 149.416 C 7.395 149.273,7.388 149.661,7.607 150.424 C 7.919 151.512,8.664 159.667,8.865 164.200 C 8.904 165.080,9.064 165.980,9.219 166.200 C 9.374 166.420,9.719 170.200,9.985 174.600 C 10.251 179.000,10.615 182.974,10.795 183.431 C 10.974 183.889,11.332 187.669,11.592 191.831 C 11.851 195.994,12.215 199.883,12.401 200.473 C 12.587 201.063,12.964 205.068,13.239 209.373 C 13.513 213.678,13.848 217.200,13.983 217.200 C 14.118 217.200,14.239 217.515,14.252 217.900 C 14.440 223.471,15.404 234.334,15.750 234.777 C 16.110 235.239,16.081 235.283,15.600 235.000 C 15.120 234.717,15.090 234.762,15.448 235.223 C 15.875 235.774,16.064 237.572,16.641 246.600 C 16.977 251.847,17.011 252.166,17.275 252.617 C 17.398 252.828,17.608 254.530,17.740 256.400 C 18.431 266.153,18.546 267.857,18.558 268.500 C 18.565 268.885,18.713 269.200,18.886 269.200 C 19.059 269.200,19.167 269.335,19.126 269.500 C 19.027 269.903,19.653 279.588,19.843 280.600 C 19.926 281.040,20.018 282.525,20.048 283.900 C 20.078 285.275,20.230 286.400,20.386 286.400 C 20.541 286.400,20.709 287.514,20.758 288.877 C 20.807 290.239,20.905 291.454,20.976 291.577 C 21.046 291.699,21.232 294.230,21.390 297.200 C 21.547 300.170,21.845 302.806,22.052 303.058 C 22.259 303.310,22.400 303.670,22.367 303.858 C 22.049 305.627,22.479 308.454,23.100 308.678 C 23.485 308.817,24.340 309.306,25.000 309.764 C 25.660 310.223,26.290 310.599,26.400 310.600 C 26.510 310.601,27.168 311.006,27.862 311.501 C 28.556 311.995,29.321 312.400,29.562 312.400 C 29.803 312.400,30.000 312.589,30.000 312.821 C 30.000 313.052,30.540 313.430,31.200 313.660 C 31.860 313.890,32.400 314.219,32.400 314.391 C 32.400 314.562,32.985 314.939,33.700 315.228 C 34.415 315.517,35.136 315.975,35.302 316.245 C 35.469 316.516,36.145 316.856,36.806 317.001 C 37.466 317.146,37.914 317.416,37.800 317.600 C 37.686 317.785,38.226 318.145,39.000 318.400 C 39.774 318.655,40.318 319.010,40.208 319.187 C 40.018 319.494,41.456 320.138,42.111 320.040 C 42.282 320.014,42.527 320.264,42.654 320.596 C 42.781 320.928,43.082 321.200,43.321 321.200 C 43.769 321.200,46.585 323.007,47.529 323.900 C 47.819 324.175,48.236 324.400,48.455 324.400 C 48.674 324.400,49.443 324.850,50.164 325.400 C 50.886 325.950,51.684 326.400,51.938 326.400 C 52.192 326.400,52.400 326.546,52.400 326.725 C 52.400 326.904,53.030 327.298,53.800 327.600 C 54.570 327.902,55.200 328.284,55.200 328.449 C 55.200 328.613,55.830 328.976,56.600 329.254 C 57.370 329.533,58.000 329.914,58.000 330.101 C 58.000 330.288,58.540 330.630,59.200 330.860 C 59.859 331.090,60.319 331.408,60.221 331.566 C 60.123 331.725,60.663 332.079,61.421 332.353 C 62.180 332.627,62.800 332.998,62.800 333.177 C 62.800 333.356,63.340 333.727,64.000 334.000 C 64.660 334.273,65.200 334.619,65.200 334.768 C 65.200 334.917,65.830 335.267,66.600 335.546 C 67.370 335.824,68.000 336.198,68.000 336.377 C 68.000 336.556,68.585 336.940,69.300 337.229 C 70.015 337.518,70.711 337.916,70.846 338.113 C 71.093 338.474,72.140 339.127,74.000 340.081 C 74.550 340.363,75.180 340.734,75.400 340.905 C 76.780 341.974,79.479 343.587,79.900 343.593 C 80.175 343.597,80.400 343.784,80.400 344.010 C 80.400 344.235,80.805 344.608,81.300 344.838 C 82.757 345.514,84.511 346.538,85.862 347.501 C 86.556 347.995,87.321 348.400,87.562 348.400 C 87.803 348.400,88.000 348.580,88.000 348.800 C 88.000 349.020,88.208 349.200,88.462 349.200 C 88.716 349.200,89.481 349.618,90.162 350.129 C 90.843 350.641,91.670 351.184,92.000 351.336 C 92.330 351.488,93.410 352.146,94.400 352.798 C 95.390 353.450,96.605 354.163,97.100 354.382 C 97.595 354.601,98.000 354.950,98.000 355.158 C 98.000 355.366,98.525 355.652,99.167 355.793 C 99.808 355.934,100.433 356.308,100.554 356.624 C 100.676 356.941,101.023 357.200,101.325 357.200 C 101.628 357.200,102.399 357.650,103.038 358.200 C 103.677 358.749,104.425 359.199,104.700 359.200 C 104.975 359.200,105.200 359.346,105.200 359.525 C 105.200 359.704,105.830 360.098,106.600 360.400 C 107.370 360.702,108.000 361.105,108.000 361.295 C 108.000 361.486,108.540 361.830,109.200 362.060 C 109.860 362.290,110.400 362.619,110.400 362.791 C 110.400 362.962,110.985 363.339,111.700 363.628 C 112.415 363.917,113.136 364.375,113.302 364.645 C 113.469 364.916,114.144 365.256,114.802 365.401 C 115.461 365.545,116.000 365.834,116.000 366.042 C 116.000 366.250,116.450 366.591,117.000 366.800 C 117.550 367.009,118.000 367.328,118.000 367.510 C 118.000 367.691,118.630 368.067,119.400 368.346 C 120.170 368.624,120.800 369.008,120.800 369.199 C 120.800 369.390,121.179 369.666,121.641 369.813 C 122.447 370.069,124.868 371.542,125.883 372.394 C 126.149 372.617,126.492 372.800,126.645 372.800 C 126.799 372.800,127.514 373.250,128.236 373.800 C 128.957 374.350,129.739 374.800,129.973 374.800 C 130.208 374.800,130.400 374.946,130.400 375.125 C 130.400 375.304,131.030 375.698,131.800 376.000 C 132.570 376.302,133.200 376.684,133.200 376.848 C 133.200 377.012,133.559 377.260,133.998 377.399 C 134.436 377.538,135.021 377.874,135.298 378.146 C 135.574 378.417,136.880 379.251,138.200 380.000 C 139.520 380.749,140.826 381.583,141.102 381.854 C 141.379 382.126,141.964 382.462,142.402 382.601 C 142.841 382.740,143.200 382.988,143.200 383.152 C 143.200 383.316,143.830 383.698,144.600 384.000 C 145.370 384.302,146.000 384.674,146.000 384.826 C 146.000 384.978,146.585 385.339,147.300 385.628 C 148.015 385.917,148.744 386.389,148.920 386.677 C 149.096 386.964,149.473 387.200,149.759 387.200 C 150.044 387.200,150.698 387.565,151.213 388.011 C 151.727 388.457,152.564 388.926,153.074 389.054 C 153.583 389.182,154.000 389.430,154.000 389.605 C 154.000 389.780,155.020 390.526,156.266 391.262 C 157.513 391.998,158.998 392.915,159.566 393.301 C 160.135 393.686,161.185 394.274,161.900 394.606 C 162.615 394.939,163.200 395.355,163.200 395.531 C 163.200 395.707,163.830 396.098,164.600 396.400 C 165.370 396.702,166.000 397.062,166.000 397.201 C 166.000 397.339,166.585 397.757,167.300 398.131 C 168.015 398.504,169.140 399.165,169.800 399.600 C 170.460 400.035,171.630 400.708,172.400 401.095 C 173.170 401.483,173.944 402.025,174.120 402.300 C 174.296 402.575,174.687 402.800,174.989 402.800 C 175.291 402.800,176.092 403.266,176.769 403.836 C 177.446 404.405,178.006 404.720,178.013 404.536 C 178.020 404.351,178.245 404.470,178.513 404.800 C 178.781 405.130,179.540 405.670,180.200 405.999 C 180.860 406.329,181.490 406.689,181.600 406.799 C 182.060 407.261,184.388 408.800,184.626 408.800 C 184.768 408.800,185.419 409.250,186.073 409.800 C 186.727 410.350,187.518 410.800,187.831 410.800 C 188.144 410.800,188.400 410.968,188.400 411.174 C 188.400 411.380,189.030 411.776,189.800 412.054 C 190.570 412.333,191.200 412.693,191.200 412.854 C 191.200 413.016,191.830 413.376,192.600 413.654 C 193.370 413.933,194.000 414.302,194.000 414.475 C 194.000 414.824,196.616 416.000,197.393 416.000 C 197.665 416.000,198.576 415.533,199.416 414.963 C 200.257 414.393,201.239 413.869,201.600 413.800 C 202.194 413.686,204.758 412.143,205.831 411.255 C 206.068 411.058,206.698 410.765,207.231 410.602 C 207.764 410.439,208.470 410.071,208.800 409.784 C 209.130 409.497,209.894 409.139,210.497 408.988 C 211.101 408.838,211.495 408.554,211.374 408.357 C 211.252 408.161,211.408 408.000,211.721 408.000 C 212.033 408.000,212.948 407.552,213.755 407.005 C 214.561 406.458,215.666 405.898,216.210 405.762 C 216.755 405.625,217.200 405.370,217.200 405.196 C 217.200 405.021,217.695 404.681,218.300 404.439 C 218.905 404.197,219.985 403.643,220.700 403.208 C 221.415 402.772,222.000 402.537,222.000 402.684 C 222.000 402.831,222.352 402.573,222.782 402.111 C 223.213 401.649,224.113 401.151,224.782 401.004 C 225.452 400.857,226.000 400.608,226.000 400.450 C 226.000 400.293,227.215 399.546,228.700 398.791 C 230.185 398.036,231.638 397.190,231.928 396.910 C 232.218 396.630,232.892 396.292,233.425 396.158 C 233.958 396.024,234.312 395.781,234.210 395.617 C 234.109 395.453,234.740 395.105,235.613 394.843 C 236.486 394.582,237.200 394.231,237.200 394.064 C 237.200 393.897,237.830 393.533,238.600 393.254 C 239.370 392.976,240.000 392.580,240.000 392.374 C 240.000 392.168,240.197 392.000,240.438 392.000 C 240.679 392.000,241.365 391.652,241.963 391.227 C 242.560 390.801,243.532 390.332,244.122 390.184 C 244.712 390.036,245.107 389.773,245.000 389.600 C 244.893 389.427,245.299 389.162,245.903 389.012 C 246.506 388.861,247.270 388.508,247.600 388.227 C 247.930 387.946,248.785 387.466,249.500 387.161 C 250.215 386.855,250.800 386.497,250.800 386.366 C 250.800 386.235,251.514 385.892,252.387 385.604 C 253.259 385.316,253.895 384.954,253.800 384.800 C 253.705 384.646,254.335 384.286,255.200 384.000 C 256.065 383.714,256.691 383.347,256.590 383.183 C 256.488 383.019,256.888 382.764,257.478 382.616 C 258.068 382.468,259.012 382.022,259.576 381.626 C 260.139 381.229,261.005 380.779,261.500 380.626 C 261.995 380.472,262.400 380.208,262.400 380.039 C 262.400 379.871,263.660 379.120,265.200 378.372 C 266.740 377.623,268.000 376.873,268.000 376.705 C 268.000 376.537,268.326 376.400,268.725 376.400 C 269.123 376.400,269.836 376.040,270.308 375.600 C 270.780 375.160,271.431 374.800,271.755 374.800 C 272.078 374.800,272.581 374.563,272.871 374.274 C 273.820 373.330,280.789 369.600,281.604 369.600 C 281.848 369.600,281.936 369.420,281.800 369.200 C 281.664 368.980,281.798 368.800,282.097 368.800 C 282.816 368.800,284.793 367.873,284.797 367.533 C 284.799 367.387,286.015 366.680,287.500 365.962 C 288.985 365.245,290.290 364.542,290.400 364.400 C 290.615 364.123,291.997 363.491,292.515 363.435 C 292.688 363.416,292.958 363.220,293.115 363.000 C 293.272 362.780,294.480 362.040,295.800 361.356 C 300.604 358.866,301.810 358.191,302.329 357.700 C 302.619 357.425,303.105 357.200,303.409 357.200 C 303.712 357.200,304.104 356.975,304.280 356.700 C 304.456 356.425,305.806 355.612,307.281 354.892 C 308.756 354.173,310.071 353.408,310.205 353.192 C 310.338 352.977,310.699 352.800,311.006 352.800 C 311.519 352.800,313.911 351.392,315.100 350.390 C 315.375 350.158,315.600 350.068,315.600 350.189 C 315.600 350.311,316.275 349.990,317.100 349.476 C 318.636 348.519,319.821 347.959,320.692 347.776 C 320.963 347.719,321.459 347.398,321.794 347.063 C 322.130 346.727,322.764 346.338,323.202 346.199 C 323.641 346.060,324.000 345.807,324.000 345.636 C 324.000 345.466,324.720 345.111,325.600 344.847 C 326.480 344.584,327.200 344.217,327.200 344.032 C 327.200 343.848,327.785 343.463,328.500 343.176 C 329.215 342.889,330.748 342.058,331.908 341.327 C 333.067 340.597,334.282 340.000,334.608 340.000 C 334.933 340.000,335.200 339.811,335.200 339.579 C 335.200 339.348,335.740 338.970,336.400 338.740 C 337.059 338.510,337.504 338.169,337.388 337.981 C 337.273 337.794,337.815 337.521,338.595 337.375 C 339.374 337.228,340.144 336.894,340.306 336.631 C 340.468 336.368,341.185 335.917,341.900 335.628 C 342.615 335.339,343.200 334.959,343.200 334.783 C 343.200 334.607,343.742 334.345,344.404 334.199 C 345.066 334.054,345.838 333.724,346.120 333.467 C 346.955 332.703,348.345 332.000,349.018 332.000 C 349.364 332.000,349.556 331.853,349.445 331.673 C 349.334 331.493,349.863 331.121,350.621 330.847 C 351.380 330.573,352.000 330.202,352.000 330.024 C 352.000 329.846,352.518 329.596,353.152 329.470 C 353.785 329.343,354.568 328.975,354.892 328.651 C 355.501 328.042,357.782 326.774,359.700 325.978 C 360.305 325.727,360.800 325.380,360.800 325.208 C 360.800 324.936,361.233 324.745,362.498 324.460 C 362.662 324.423,363.742 323.790,364.898 323.052 C 366.054 322.315,367.405 321.584,367.900 321.429 C 368.395 321.273,368.800 320.990,368.800 320.800 C 368.800 320.610,369.205 320.327,369.700 320.172 C 370.195 320.017,371.029 319.555,371.554 319.145 C 372.079 318.735,372.804 318.400,373.165 318.400 C 373.526 318.400,374.126 318.045,374.498 317.611 C 374.869 317.177,375.674 316.697,376.287 316.545 C 376.899 316.392,377.619 315.982,377.887 315.634 C 378.155 315.285,378.380 315.156,378.387 315.347 C 378.394 315.539,379.018 315.224,379.773 314.647 C 380.529 314.071,381.434 313.600,381.786 313.600 C 382.137 313.600,382.519 313.356,382.633 313.057 C 382.748 312.759,383.546 312.282,384.408 311.997 C 385.269 311.713,385.891 311.347,385.790 311.183 C 385.611 310.894,387.495 310.202,388.100 310.334 C 388.265 310.370,388.400 310.216,388.400 309.990 C 388.400 309.765,388.850 309.409,389.400 309.200 C 390.373 308.830,390.400 308.714,390.400 304.890 C 390.400 302.728,390.560 300.789,390.755 300.580 C 390.951 300.371,391.226 295.160,391.367 289.000 C 391.508 282.840,391.753 275.190,391.910 272.000 C 392.067 268.810,392.197 264.760,392.198 263.000 C 392.199 261.240,392.313 259.710,392.452 259.600 C 392.644 259.447,393.391 234.941,393.292 232.000 C 393.281 231.670,393.421 230.860,393.603 230.200 C 393.933 229.005,394.163 222.691,394.649 201.400 C 394.789 195.240,395.066 189.996,395.262 189.747 C 395.459 189.498,395.589 188.778,395.551 188.147 C 395.494 187.182,395.956 169.331,396.171 164.200 C 396.208 163.320,396.275 159.664,396.319 156.076 C 396.364 152.488,396.550 149.646,396.734 149.759 C 396.917 149.873,397.103 147.498,397.147 144.483 C 397.190 141.467,397.396 134.410,397.605 128.800 C 397.814 123.190,397.988 116.395,397.992 113.700 C 397.996 111.005,398.154 108.800,398.343 108.800 C 398.532 108.800,398.720 106.505,398.761 103.700 C 398.802 100.895,399.083 90.776,399.387 81.213 C 400.011 61.550,400.170 63.376,397.805 63.022 C 396.812 62.873,396.000 62.591,396.000 62.396 C 396.000 62.200,394.920 61.828,393.600 61.568 C 392.280 61.308,391.200 60.955,391.200 60.783 C 391.200 60.611,390.481 60.349,389.602 60.200 C 388.723 60.052,387.914 59.784,387.803 59.605 C 387.693 59.427,386.657 59.059,385.501 58.788 C 384.346 58.517,383.220 58.157,383.000 57.989 C 382.780 57.820,381.790 57.461,380.800 57.191 C 379.810 56.921,378.439 56.455,377.753 56.156 C 377.066 55.857,375.806 55.502,374.953 55.366 C 374.099 55.231,373.310 54.980,373.200 54.808 C 373.090 54.637,371.965 54.266,370.700 53.985 C 369.435 53.703,368.400 53.346,368.400 53.191 C 368.400 53.036,367.320 52.680,366.000 52.400 C 364.680 52.120,363.600 51.758,363.600 51.595 C 363.600 51.433,362.520 51.060,361.200 50.767 C 359.880 50.475,358.800 50.115,358.800 49.967 C 358.800 49.820,357.720 49.460,356.400 49.167 C 355.080 48.875,354.000 48.515,354.000 48.367 C 354.000 48.220,352.920 47.860,351.600 47.567 C 350.280 47.275,349.200 46.915,349.200 46.767 C 349.200 46.620,348.120 46.260,346.800 45.967 C 345.480 45.675,344.400 45.312,344.400 45.162 C 344.400 45.012,343.725 44.764,342.900 44.611 C 342.075 44.459,340.860 44.098,340.200 43.810 C 338.720 43.164,335.473 42.075,333.600 41.597 C 332.830 41.401,331.660 40.978,331.000 40.658 C 330.340 40.338,329.035 39.953,328.100 39.803 C 327.165 39.653,326.400 39.390,326.400 39.219 C 326.400 39.049,325.320 38.680,324.000 38.400 C 322.680 38.120,321.600 37.760,321.600 37.600 C 321.600 37.440,320.515 37.079,319.188 36.798 C 317.862 36.516,316.689 36.144,316.581 35.970 C 316.474 35.796,315.399 35.433,314.193 35.164 C 312.987 34.894,312.000 34.546,312.000 34.391 C 312.000 34.236,310.920 33.880,309.600 33.600 C 308.280 33.320,307.200 32.955,307.200 32.789 C 307.200 32.623,306.039 32.256,304.619 31.974 C 303.200 31.692,302.112 31.343,302.201 31.198 C 302.291 31.053,301.202 30.693,299.782 30.396 C 298.362 30.100,297.200 29.729,297.200 29.572 C 297.200 29.415,296.030 29.054,294.600 28.770 C 293.170 28.486,292.000 28.126,292.000 27.970 C 292.000 27.673,290.629 27.250,288.600 26.922 C 287.940 26.815,287.342 26.570,287.271 26.377 C 287.200 26.183,286.497 25.904,285.708 25.756 C 284.920 25.608,283.808 25.241,283.237 24.940 C 282.667 24.639,281.525 24.281,280.700 24.145 C 279.875 24.009,279.200 23.763,279.200 23.599 C 279.200 23.434,278.120 23.060,276.800 22.767 C 275.480 22.475,274.400 22.121,274.400 21.981 C 274.400 21.842,273.365 21.489,272.100 21.197 C 270.835 20.905,269.620 20.545,269.400 20.397 C 269.180 20.249,267.110 19.530,264.800 18.800 C 262.490 18.070,260.420 17.345,260.200 17.189 C 259.980 17.033,258.854 16.683,257.699 16.412 C 256.543 16.141,255.505 15.770,255.392 15.587 C 255.279 15.404,254.154 15.042,252.893 14.784 C 251.632 14.525,250.384 14.139,250.121 13.925 C 249.857 13.712,249.047 13.444,248.321 13.331 C 247.594 13.217,246.280 12.801,245.400 12.407 C 244.520 12.012,243.035 11.563,242.100 11.409 C 241.165 11.256,240.400 10.990,240.400 10.819 C 240.400 10.649,239.320 10.280,238.000 10.000 C 236.680 9.720,235.600 9.366,235.600 9.213 C 235.600 9.060,234.835 8.738,233.900 8.497 C 231.788 7.953,228.587 6.883,227.000 6.190 C 226.340 5.902,225.123 5.541,224.296 5.388 C 223.468 5.235,222.700 4.962,222.589 4.782 C 222.477 4.602,221.399 4.233,220.193 3.964 C 218.987 3.694,218.000 3.346,218.000 3.191 C 218.000 3.036,216.875 2.674,215.500 2.387 C 214.125 2.100,212.910 1.747,212.800 1.604 C 211.811 0.310,206.427 -0.186,203.000 0.701 M208.400 3.171 C 208.400 3.376,209.390 3.764,210.600 4.035 C 211.810 4.306,212.800 4.654,212.800 4.809 C 212.800 4.964,213.880 5.320,215.200 5.600 C 216.520 5.880,217.600 6.224,217.600 6.364 C 217.600 6.504,218.635 6.857,219.900 7.149 C 221.165 7.441,222.380 7.812,222.600 7.972 C 222.820 8.133,224.530 8.755,226.400 9.354 C 228.270 9.953,230.070 10.586,230.400 10.760 C 230.730 10.935,231.990 11.324,233.200 11.626 C 234.410 11.927,235.490 12.283,235.600 12.417 C 235.710 12.550,236.700 12.906,237.800 13.208 C 238.900 13.509,240.250 13.990,240.800 14.276 C 241.350 14.561,242.002 14.796,242.248 14.798 C 242.494 14.799,243.844 15.175,245.248 15.633 C 248.168 16.587,248.720 16.727,249.724 16.769 C 250.122 16.786,250.355 16.949,250.243 17.130 C 250.131 17.312,251.200 17.692,252.619 17.974 C 254.039 18.256,255.200 18.613,255.200 18.768 C 255.200 18.922,256.145 19.286,257.300 19.576 C 258.455 19.866,259.580 20.242,259.800 20.412 C 260.020 20.583,261.010 20.930,262.000 21.184 C 262.990 21.439,264.340 21.888,265.000 22.182 C 265.660 22.476,266.965 22.842,267.900 22.994 C 268.835 23.146,269.600 23.420,269.600 23.602 C 269.600 23.784,270.533 24.134,271.673 24.378 C 272.813 24.623,273.938 24.979,274.173 25.169 C 274.408 25.360,275.590 25.784,276.800 26.112 C 278.010 26.440,279.990 27.100,281.200 27.578 C 282.410 28.057,283.850 28.539,284.400 28.650 C 284.950 28.761,286.165 29.190,287.100 29.603 C 288.035 30.017,288.800 30.283,288.800 30.195 C 288.800 30.107,289.504 30.284,290.364 30.587 C 291.224 30.891,292.063 31.018,292.228 30.869 C 292.393 30.721,292.399 30.825,292.241 31.100 C 292.065 31.405,292.197 31.620,292.576 31.650 C 292.919 31.677,293.335 31.733,293.500 31.774 C 293.665 31.814,294.566 31.988,295.502 32.159 C 296.438 32.331,297.114 32.615,297.006 32.791 C 296.897 32.967,297.301 33.202,297.904 33.315 C 299.956 33.697,300.881 33.969,301.341 34.325 C 301.593 34.520,302.925 34.912,304.300 35.195 C 305.675 35.478,306.800 35.840,306.800 36.000 C 306.800 36.160,307.880 36.520,309.200 36.800 C 310.520 37.080,311.600 37.440,311.600 37.600 C 311.600 37.760,312.680 38.120,314.000 38.400 C 315.320 38.680,316.400 39.040,316.400 39.200 C 316.400 39.360,317.480 39.720,318.800 40.000 C 320.120 40.280,321.200 40.636,321.200 40.791 C 321.200 40.946,322.198 41.296,323.417 41.569 C 324.636 41.842,326.121 42.319,326.717 42.630 C 327.313 42.941,328.070 43.197,328.400 43.200 C 328.730 43.203,329.483 43.457,330.073 43.765 C 330.663 44.073,331.743 44.452,332.473 44.608 C 333.203 44.765,333.982 45.038,334.205 45.217 C 334.428 45.395,335.508 45.760,336.605 46.028 C 337.702 46.296,338.780 46.646,339.000 46.805 C 339.220 46.965,340.371 47.323,341.558 47.601 C 342.745 47.880,344.169 48.342,344.722 48.629 C 345.275 48.916,346.419 49.268,347.264 49.411 C 348.109 49.554,348.800 49.810,348.800 49.981 C 348.800 50.151,349.880 50.520,351.200 50.800 C 352.520 51.080,353.600 51.440,353.600 51.600 C 353.600 51.760,354.680 52.120,356.000 52.400 C 357.320 52.680,358.400 53.040,358.400 53.200 C 358.400 53.360,359.480 53.720,360.800 54.000 C 362.120 54.280,363.200 54.640,363.200 54.800 C 363.200 54.960,364.280 55.320,365.600 55.600 C 366.920 55.880,368.000 56.240,368.000 56.400 C 368.000 56.560,369.085 56.921,370.412 57.202 C 371.738 57.484,372.911 57.856,373.019 58.030 C 373.126 58.204,374.201 58.567,375.407 58.836 C 376.613 59.106,377.600 59.454,377.600 59.609 C 377.600 59.764,378.680 60.120,380.000 60.400 C 381.320 60.680,382.400 61.054,382.400 61.230 C 382.400 61.407,383.212 61.673,384.205 61.822 C 385.198 61.971,386.101 62.239,386.212 62.419 C 386.323 62.599,387.401 62.967,388.607 63.236 C 389.813 63.506,390.800 63.863,390.800 64.028 C 390.800 64.194,391.534 64.454,392.431 64.605 C 394.262 64.915,393.786 65.644,391.367 66.237 C 390.725 66.394,389.573 66.855,388.807 67.261 C 388.041 67.666,386.826 68.109,386.107 68.244 C 385.388 68.379,384.800 68.635,384.800 68.813 C 384.800 68.991,384.215 69.263,383.500 69.418 C 382.785 69.573,381.570 70.016,380.800 70.402 C 378.474 71.567,376.684 72.314,375.000 72.822 C 374.120 73.087,373.220 73.437,373.000 73.600 C 372.780 73.763,371.880 74.125,371.000 74.406 C 370.120 74.686,369.310 75.032,369.200 75.174 C 369.090 75.316,368.370 75.637,367.600 75.888 C 364.345 76.949,362.167 77.831,361.687 78.284 C 361.405 78.551,360.550 78.886,359.787 79.029 C 359.024 79.172,358.400 79.435,358.400 79.613 C 358.400 79.791,357.815 80.058,357.100 80.207 C 356.385 80.357,355.440 80.701,355.000 80.973 C 354.560 81.245,353.345 81.717,352.300 82.021 C 351.255 82.326,350.400 82.697,350.400 82.847 C 350.400 82.997,349.500 83.336,348.400 83.600 C 347.300 83.864,346.400 84.242,346.400 84.440 C 346.400 84.638,346.135 84.800,345.812 84.800 C 345.488 84.800,344.273 85.230,343.112 85.755 C 341.950 86.281,340.415 86.835,339.700 86.987 C 338.985 87.139,338.400 87.408,338.400 87.584 C 338.400 87.761,337.590 88.109,336.600 88.358 C 335.610 88.608,334.800 88.966,334.800 89.156 C 334.800 89.345,334.260 89.608,333.600 89.740 C 332.940 89.872,331.600 90.344,330.622 90.790 C 329.644 91.235,328.577 91.600,328.251 91.600 C 327.924 91.600,327.418 91.840,327.125 92.133 C 326.832 92.425,326.054 92.799,325.396 92.963 C 324.738 93.127,323.660 93.505,323.000 93.802 C 319.106 95.555,317.983 96.000,317.451 96.000 C 317.124 96.000,316.618 96.240,316.325 96.533 C 316.032 96.825,315.257 97.199,314.602 97.364 C 313.948 97.528,312.459 98.098,311.294 98.631 C 310.129 99.164,308.912 99.600,308.588 99.600 C 308.265 99.600,308.000 99.762,308.000 99.960 C 308.000 100.158,307.100 100.536,306.000 100.800 C 304.900 101.064,304.000 101.422,304.000 101.595 C 304.000 101.769,303.412 102.021,302.693 102.156 C 301.974 102.291,300.759 102.734,299.993 103.139 C 299.227 103.545,298.062 104.009,297.404 104.170 C 296.746 104.332,296.116 104.597,296.004 104.761 C 295.892 104.925,294.990 105.344,294.000 105.692 C 289.971 107.109,288.190 107.814,287.996 108.068 C 287.884 108.216,287.254 108.462,286.596 108.616 C 285.938 108.769,285.040 109.116,284.600 109.387 C 284.160 109.657,283.108 110.106,282.261 110.383 C 281.415 110.661,280.245 111.137,279.661 111.441 C 279.078 111.746,278.285 111.996,277.900 111.998 C 277.515 111.999,277.200 112.166,277.200 112.368 C 277.200 112.571,276.615 112.865,275.900 113.022 C 275.185 113.178,273.973 113.643,273.206 114.053 C 272.439 114.464,271.664 114.800,271.484 114.800 C 271.304 114.800,270.356 115.165,269.378 115.610 C 268.400 116.056,267.060 116.528,266.400 116.660 C 265.740 116.792,265.200 117.055,265.200 117.244 C 265.200 117.434,264.390 117.792,263.400 118.042 C 262.410 118.291,261.600 118.625,261.600 118.784 C 261.600 118.942,260.610 119.310,259.400 119.600 C 258.190 119.890,257.200 120.256,257.200 120.412 C 257.200 120.568,256.390 120.923,255.400 121.200 C 254.410 121.477,253.600 121.832,253.600 121.988 C 253.600 122.144,252.610 122.510,251.400 122.800 C 250.190 123.090,249.200 123.458,249.200 123.616 C 249.200 123.775,248.390 124.109,247.400 124.358 C 246.410 124.608,245.600 124.966,245.600 125.156 C 245.600 125.345,245.060 125.608,244.400 125.740 C 243.740 125.872,242.435 126.322,241.500 126.741 C 237.215 128.658,235.860 129.200,235.349 129.200 C 235.047 129.200,234.800 129.362,234.800 129.560 C 234.800 129.758,233.900 130.136,232.800 130.400 C 231.700 130.664,230.800 131.009,230.800 131.168 C 230.800 131.326,229.900 131.700,228.800 132.000 C 227.700 132.300,226.800 132.674,226.800 132.832 C 226.800 132.991,225.900 133.336,224.800 133.600 C 223.700 133.864,222.800 134.208,222.800 134.364 C 222.800 134.521,221.900 134.879,220.799 135.162 C 219.699 135.444,218.883 135.810,218.986 135.977 C 219.088 136.143,218.189 136.515,216.986 136.803 C 215.784 137.092,214.800 137.451,214.800 137.601 C 214.800 137.831,212.135 138.800,211.502 138.800 C 211.389 138.800,211.269 134.255,211.234 128.700 C 211.199 123.145,211.011 117.520,210.817 116.200 C 210.623 114.880,210.331 104.800,210.167 93.800 C 210.003 82.800,209.828 72.900,209.777 71.800 C 209.726 70.700,209.671 67.190,209.654 64.000 C 209.637 60.810,209.449 55.680,209.236 52.600 C 208.893 47.628,208.184 9.734,208.362 5.900 C 208.401 5.075,208.245 4.400,208.016 4.400 C 207.787 4.400,207.600 4.040,207.600 3.600 C 207.600 3.160,207.780 2.800,208.000 2.800 C 208.220 2.800,208.400 2.967,208.400 3.171 M205.331 6.900 C 205.464 8.715,205.577 12.270,205.582 14.800 C 205.604 25.848,206.065 46.229,206.401 51.000 C 206.602 53.860,206.878 64.390,207.014 74.400 C 207.150 84.410,207.323 93.950,207.399 95.600 C 207.474 97.250,207.652 102.200,207.794 106.600 C 207.936 111.000,208.123 115.680,208.211 117.000 C 208.807 125.997,208.452 140.201,207.628 140.328 C 207.173 140.398,206.800 140.609,206.800 140.796 C 206.800 140.983,206.215 141.262,205.500 141.414 C 204.785 141.567,203.750 141.924,203.200 142.206 C 201.664 142.996,197.343 144.798,196.950 144.814 C 196.757 144.821,195.880 145.175,195.000 145.600 C 194.120 146.025,193.175 146.379,192.900 146.386 C 192.625 146.394,192.400 146.562,192.400 146.760 C 192.400 147.544,188.403 148.129,186.758 147.586 C 185.901 147.303,185.200 146.941,185.200 146.780 C 185.200 146.620,184.570 146.371,183.800 146.226 C 183.030 146.082,182.400 145.804,182.400 145.609 C 182.400 145.414,181.995 145.130,181.500 144.979 C 181.005 144.828,179.835 144.362,178.900 143.942 C 177.965 143.523,176.671 143.074,176.026 142.945 C 175.380 142.816,174.764 142.483,174.658 142.206 C 174.551 141.928,173.819 141.580,173.032 141.432 C 172.244 141.285,171.600 140.992,171.600 140.782 C 171.600 140.572,171.319 140.400,170.975 140.400 C 170.372 140.400,167.309 139.103,164.400 137.616 C 163.630 137.222,162.415 136.773,161.700 136.618 C 160.985 136.463,160.400 136.171,160.400 135.968 C 160.400 135.766,160.225 135.600,160.012 135.600 C 159.798 135.600,158.673 135.171,157.512 134.647 C 155.057 133.539,153.524 133.009,153.100 133.121 C 152.935 133.164,152.800 133.027,152.800 132.816 C 152.800 132.605,152.080 132.216,151.200 131.953 C 150.320 131.689,149.600 131.345,149.600 131.189 C 149.600 131.032,148.790 130.677,147.800 130.400 C 146.810 130.123,146.000 129.748,146.000 129.566 C 146.000 129.385,145.370 129.118,144.600 128.974 C 143.830 128.829,143.200 128.571,143.200 128.400 C 143.200 128.228,142.390 127.849,141.400 127.557 C 140.410 127.265,139.600 126.885,139.600 126.713 C 139.600 126.541,139.375 126.398,139.100 126.396 C 138.825 126.394,137.700 125.950,136.600 125.409 C 135.500 124.868,134.453 124.419,134.274 124.413 C 134.095 124.406,132.965 123.950,131.763 123.400 C 130.560 122.850,129.402 122.400,129.188 122.400 C 128.975 122.400,128.800 122.237,128.800 122.037 C 128.800 121.837,127.909 121.446,126.820 121.166 C 125.731 120.887,124.921 120.527,125.021 120.367 C 125.120 120.206,124.301 119.844,123.201 119.562 C 122.100 119.279,121.200 118.923,121.200 118.769 C 121.200 118.614,120.390 118.249,119.400 117.957 C 118.410 117.665,117.600 117.313,117.600 117.176 C 117.600 117.039,116.835 116.698,115.900 116.419 C 114.965 116.140,114.092 115.740,113.960 115.529 C 113.828 115.319,113.468 115.097,113.160 115.036 C 111.652 114.737,110.400 114.285,110.400 114.040 C 110.400 113.889,109.590 113.549,108.600 113.284 C 107.610 113.020,106.800 112.631,106.800 112.420 C 106.800 112.209,106.170 111.918,105.400 111.774 C 104.630 111.629,104.000 111.351,104.000 111.155 C 104.000 110.960,103.818 110.800,103.596 110.800 C 103.214 110.800,102.341 110.430,97.325 108.145 C 96.183 107.625,95.101 107.200,94.919 107.200 C 94.737 107.200,93.887 106.824,93.029 106.365 C 92.172 105.905,91.108 105.459,90.665 105.374 C 90.221 105.289,89.756 105.061,89.629 104.867 C 89.411 104.533,86.325 103.386,86.086 103.550 C 86.023 103.593,85.702 103.359,85.373 103.030 C 85.044 102.701,84.150 102.314,83.387 102.171 C 82.624 102.028,82.000 101.751,82.000 101.555 C 82.000 101.360,81.825 101.200,81.612 101.200 C 81.398 101.200,80.271 100.764,79.106 100.231 C 77.941 99.698,76.495 99.139,75.894 98.988 C 75.292 98.837,74.800 98.576,74.800 98.409 C 74.800 98.241,73.990 97.877,73.000 97.600 C 72.010 97.323,71.200 96.961,71.200 96.796 C 71.200 96.630,70.390 96.291,69.400 96.042 C 68.410 95.792,67.600 95.411,67.600 95.194 C 67.600 94.977,67.410 94.800,67.178 94.800 C 66.766 94.800,65.081 94.083,60.961 92.154 C 59.840 91.629,58.647 91.200,58.310 91.200 C 57.974 91.200,57.479 90.936,57.211 90.613 C 56.943 90.290,56.606 90.049,56.462 90.078 C 55.927 90.186,54.000 89.502,54.000 89.204 C 54.000 89.034,53.190 88.691,52.200 88.442 C 51.210 88.192,50.400 87.828,50.400 87.631 C 50.400 87.435,49.500 87.043,48.400 86.761 C 47.300 86.479,46.400 86.117,46.400 85.955 C 46.400 85.794,45.725 85.445,44.900 85.179 C 44.075 84.913,43.220 84.563,43.000 84.400 C 42.780 84.237,41.925 83.887,41.100 83.621 C 40.275 83.355,39.600 83.004,39.600 82.841 C 39.600 82.678,38.700 82.300,37.600 82.000 C 36.500 81.700,35.600 81.347,35.600 81.215 C 35.600 81.083,34.790 80.735,33.800 80.443 C 32.810 80.151,32.000 79.766,32.000 79.588 C 32.000 79.409,31.415 79.137,30.700 78.982 C 29.985 78.827,28.770 78.361,28.000 77.948 C 25.702 76.713,20.628 74.472,19.475 74.183 C 18.884 74.035,18.400 73.761,18.400 73.575 C 18.400 73.390,17.815 73.065,17.100 72.854 C 15.411 72.355,11.458 70.674,11.200 70.344 C 11.090 70.204,10.190 69.852,9.200 69.564 C 8.210 69.275,7.310 68.922,7.200 68.779 C 7.090 68.637,6.730 68.426,6.400 68.311 C 6.058 68.192,6.445 67.975,7.300 67.807 C 8.125 67.644,8.800 67.364,8.800 67.184 C 8.800 67.004,9.835 66.631,11.100 66.353 C 12.365 66.076,13.490 65.738,13.600 65.601 C 13.710 65.465,14.835 65.110,16.100 64.813 C 17.365 64.515,18.400 64.121,18.400 63.936 C 18.400 63.751,18.784 63.600,19.254 63.600 C 20.467 63.600,23.200 62.735,23.200 62.350 C 23.200 62.173,24.100 61.908,25.200 61.762 C 26.300 61.616,27.200 61.360,27.200 61.192 C 27.200 61.024,28.361 60.656,29.781 60.374 C 31.200 60.092,32.269 59.712,32.157 59.530 C 32.045 59.349,32.233 59.178,32.576 59.150 C 32.919 59.123,33.335 59.060,33.500 59.011 C 33.665 58.962,34.562 58.782,35.493 58.611 C 36.424 58.440,37.110 58.177,37.017 58.027 C 36.924 57.877,37.921 57.516,39.232 57.225 C 40.544 56.934,41.706 56.552,41.815 56.375 C 41.924 56.199,43.001 55.833,44.207 55.564 C 45.413 55.294,46.400 54.951,46.400 54.803 C 46.400 54.655,46.625 54.518,46.900 54.499 C 47.175 54.480,47.850 54.344,48.400 54.197 C 48.950 54.050,49.850 53.831,50.400 53.711 C 50.950 53.591,51.580 53.356,51.800 53.190 C 52.020 53.023,53.237 52.674,54.505 52.414 C 55.773 52.154,56.726 51.804,56.623 51.637 C 56.520 51.470,56.652 51.315,56.918 51.293 C 57.811 51.218,60.990 50.323,62.200 49.807 C 62.860 49.525,64.075 49.175,64.900 49.029 C 65.725 48.883,66.400 48.615,66.400 48.434 C 66.400 48.253,67.480 47.892,68.800 47.632 C 70.120 47.372,71.200 47.030,71.200 46.871 C 71.200 46.712,72.235 46.343,73.500 46.051 C 74.765 45.759,75.980 45.375,76.200 45.198 C 76.420 45.020,77.212 44.780,77.961 44.663 C 78.709 44.546,79.429 44.304,79.561 44.125 C 79.808 43.789,79.922 43.752,82.600 43.122 C 83.480 42.915,84.479 42.599,84.820 42.419 C 85.161 42.240,86.466 41.864,87.720 41.583 C 88.974 41.302,90.000 40.930,90.000 40.756 C 90.000 40.583,91.080 40.228,92.400 39.968 C 93.720 39.708,94.800 39.359,94.800 39.191 C 94.800 39.024,95.961 38.656,97.381 38.374 C 98.800 38.092,99.884 37.736,99.790 37.583 C 99.695 37.430,100.739 37.075,102.109 36.793 C 103.479 36.511,104.807 36.120,105.059 35.925 C 105.312 35.730,105.897 35.487,106.359 35.385 C 107.949 35.035,117.968 31.806,119.400 31.182 C 119.840 30.990,121.010 30.628,122.000 30.378 C 122.990 30.127,123.980 29.783,124.200 29.613 C 124.420 29.443,125.230 29.190,126.000 29.050 C 126.770 28.910,127.903 28.533,128.517 28.213 C 129.131 27.892,130.301 27.510,131.117 27.363 C 131.933 27.216,132.780 26.963,133.000 26.800 C 133.220 26.638,134.345 26.283,135.499 26.013 C 136.654 25.742,137.515 25.386,137.413 25.222 C 137.312 25.057,138.482 24.686,140.014 24.397 C 141.546 24.108,142.800 23.743,142.800 23.586 C 142.800 23.429,143.880 23.060,145.200 22.767 C 146.520 22.475,147.600 22.129,147.600 22.000 C 147.600 21.871,148.680 21.525,150.000 21.233 C 151.320 20.940,152.400 20.576,152.400 20.423 C 152.400 20.271,153.570 19.914,155.000 19.630 C 156.430 19.346,157.600 18.981,157.600 18.820 C 157.600 18.659,158.635 18.297,159.900 18.015 C 161.165 17.734,162.290 17.381,162.400 17.230 C 162.587 16.975,165.991 16.022,167.100 15.915 C 167.375 15.888,167.600 15.725,167.600 15.551 C 167.600 15.378,168.275 15.124,169.100 14.987 C 169.925 14.850,170.870 14.633,171.200 14.505 C 171.530 14.378,171.935 14.302,172.100 14.336 C 172.265 14.371,172.400 14.245,172.400 14.055 C 172.400 13.865,173.480 13.480,174.800 13.200 C 176.120 12.920,177.200 12.576,177.200 12.436 C 177.200 12.296,178.217 11.945,179.461 11.656 C 180.705 11.367,182.010 10.967,182.361 10.766 C 183.219 10.277,189.160 8.400,189.851 8.400 C 190.153 8.400,190.400 8.243,190.400 8.052 C 190.400 7.861,191.474 7.493,192.787 7.234 C 194.100 6.976,195.269 6.613,195.384 6.427 C 195.499 6.240,196.762 5.856,198.191 5.572 C 199.620 5.288,200.693 4.960,200.576 4.842 C 200.363 4.630,203.219 3.752,204.445 3.652 C 204.973 3.609,205.134 4.199,205.331 6.900 M396.269 77.300 C 396.130 82.635,395.899 91.500,395.754 97.000 C 395.609 102.500,395.359 107.180,395.199 107.400 C 395.038 107.620,394.791 112.570,394.651 118.400 C 393.998 145.572,393.852 149.600,393.519 149.600 C 393.323 149.600,393.193 150.365,393.229 151.300 C 393.293 152.949,392.762 175.480,392.604 177.831 C 392.561 178.474,392.497 181.846,392.463 185.324 C 392.422 189.422,392.259 191.560,392.000 191.400 C 391.742 191.240,391.598 192.897,391.595 196.076 C 391.587 203.227,391.038 218.891,390.479 227.900 C 390.300 230.789,390.343 232.461,390.600 232.570 C 390.842 232.672,390.806 232.877,390.510 233.087 C 390.240 233.279,390.047 233.967,390.081 234.618 C 390.245 237.768,389.515 261.224,389.204 262.800 C 388.854 264.567,388.678 269.500,388.143 292.500 C 387.995 298.825,387.723 304.000,387.537 304.000 C 387.352 304.000,387.200 304.292,387.200 304.649 C 387.200 305.113,387.058 305.185,386.700 304.901 C 386.425 304.683,385.525 304.287,384.700 304.021 C 383.875 303.755,383.200 303.386,383.200 303.201 C 383.200 303.015,382.660 302.745,382.000 302.600 C 381.340 302.455,380.800 302.178,380.800 301.984 C 380.800 301.791,380.080 301.416,379.200 301.153 C 378.320 300.889,377.600 300.551,377.600 300.401 C 377.600 300.251,376.880 299.890,376.000 299.600 C 375.120 299.310,374.400 298.940,374.400 298.779 C 374.400 298.618,373.911 298.364,373.313 298.214 C 371.832 297.842,367.831 295.942,367.667 295.532 C 367.593 295.349,367.323 295.200,367.067 295.200 C 366.810 295.200,364.800 294.300,362.600 293.200 C 360.400 292.100,358.375 291.200,358.100 291.200 C 357.825 291.200,357.600 291.043,357.600 290.852 C 357.600 290.661,356.793 290.278,355.807 290.002 C 354.821 289.726,354.098 289.365,354.200 289.200 C 354.302 289.035,353.579 288.674,352.593 288.398 C 351.607 288.122,350.800 287.776,350.800 287.628 C 350.800 287.481,350.125 287.119,349.300 286.824 C 348.475 286.529,347.710 286.171,347.600 286.028 C 347.321 285.666,342.599 283.600,342.050 283.600 C 341.802 283.600,341.600 283.449,341.600 283.264 C 341.600 283.079,340.880 282.690,340.000 282.400 C 339.120 282.110,338.400 281.750,338.400 281.600 C 338.400 281.450,337.680 281.090,336.800 280.800 C 335.920 280.510,335.200 280.150,335.200 280.000 C 335.200 279.850,334.480 279.490,333.600 279.200 C 332.720 278.910,332.000 278.541,332.000 278.380 C 332.000 278.220,331.190 277.849,330.200 277.557 C 329.210 277.265,328.400 276.905,328.400 276.757 C 328.400 276.609,327.602 276.253,326.626 275.964 C 325.650 275.676,324.928 275.316,325.023 275.163 C 325.117 275.011,324.385 274.648,323.397 274.356 C 322.409 274.064,321.600 273.692,321.600 273.529 C 321.600 273.366,320.880 273.016,320.000 272.753 C 319.120 272.489,318.400 272.136,318.400 271.968 C 318.400 271.800,317.725 271.442,316.900 271.173 C 316.075 270.904,315.310 270.559,315.200 270.406 C 314.436 269.344,306.398 268.151,306.401 269.100 C 306.402 269.462,310.792 271.622,311.500 271.609 C 311.775 271.604,312.000 271.780,312.000 272.000 C 312.000 272.220,312.225 272.400,312.500 272.400 C 312.775 272.400,314.800 273.300,317.000 274.400 C 319.200 275.500,321.203 276.400,321.451 276.400 C 321.699 276.400,322.117 276.658,322.379 276.974 C 322.641 277.290,323.383 277.664,324.028 277.806 C 324.672 277.948,325.200 278.206,325.200 278.380 C 325.200 278.554,326.010 278.923,327.000 279.200 C 327.990 279.477,328.800 279.832,328.800 279.988 C 328.800 280.144,329.520 280.510,330.400 280.800 C 331.280 281.090,332.000 281.450,332.000 281.600 C 332.000 281.750,332.720 282.110,333.600 282.400 C 334.480 282.690,335.200 283.050,335.200 283.200 C 335.200 283.350,335.920 283.710,336.800 284.000 C 337.680 284.290,338.400 284.660,338.400 284.821 C 338.400 284.982,338.895 285.234,339.500 285.381 C 340.634 285.658,347.244 288.810,347.600 289.244 C 347.710 289.378,348.475 289.729,349.300 290.024 C 350.125 290.319,350.800 290.705,350.800 290.880 C 350.800 291.056,351.008 291.200,351.261 291.200 C 351.515 291.200,352.865 291.740,354.262 292.400 C 355.659 293.060,357.072 293.600,357.401 293.600 C 357.730 293.600,358.000 293.773,358.000 293.984 C 358.000 294.195,358.720 294.584,359.600 294.847 C 360.480 295.111,361.200 295.471,361.200 295.647 C 361.200 295.824,361.920 296.184,362.800 296.447 C 363.680 296.711,364.400 297.049,364.400 297.199 C 364.400 297.349,365.120 297.710,366.000 298.000 C 366.880 298.290,367.600 298.679,367.600 298.864 C 367.600 299.049,367.949 299.200,368.376 299.200 C 368.803 299.200,369.264 299.380,369.400 299.600 C 369.536 299.820,369.997 300.000,370.424 300.000 C 370.851 300.000,371.200 300.151,371.200 300.336 C 371.200 300.521,371.920 300.910,372.800 301.200 C 373.680 301.490,374.400 301.851,374.400 302.001 C 374.400 302.151,375.120 302.489,376.000 302.753 C 376.880 303.016,377.600 303.391,377.600 303.584 C 377.600 303.778,378.128 304.052,378.772 304.194 C 379.417 304.336,380.159 304.710,380.421 305.026 C 380.683 305.342,381.101 305.606,381.349 305.613 C 382.305 305.639,385.522 307.477,385.268 307.851 C 385.121 308.068,384.370 308.495,383.600 308.799 C 382.830 309.104,382.064 309.575,381.898 309.845 C 381.731 310.116,381.056 310.456,380.398 310.601 C 379.739 310.745,379.200 311.012,379.200 311.193 C 379.200 311.374,378.660 311.710,378.000 311.940 C 377.340 312.170,376.800 312.533,376.800 312.747 C 376.800 312.961,376.262 313.255,375.605 313.399 C 374.947 313.543,374.302 313.835,374.171 314.048 C 374.039 314.260,373.227 314.716,372.366 315.060 C 371.505 315.405,370.800 315.828,370.800 316.000 C 370.800 316.172,370.305 316.437,369.700 316.588 C 369.095 316.739,368.330 317.098,368.000 317.386 C 367.670 317.675,366.410 318.419,365.200 319.041 C 363.990 319.662,362.774 320.390,362.498 320.659 C 362.221 320.928,361.591 321.274,361.098 321.428 C 360.604 321.582,360.110 321.819,360.000 321.954 C 359.890 322.089,358.540 322.830,357.000 323.600 C 355.460 324.370,354.110 325.090,354.000 325.201 C 353.890 325.311,353.260 325.671,352.600 326.000 C 351.940 326.329,351.310 326.695,351.200 326.813 C 351.090 326.931,349.785 327.643,348.300 328.396 C 346.815 329.148,345.600 329.893,345.600 330.050 C 345.600 330.208,345.048 330.458,344.373 330.606 C 343.698 330.754,343.059 331.103,342.952 331.381 C 342.845 331.658,342.048 332.120,341.179 332.407 C 340.311 332.694,339.600 333.035,339.600 333.166 C 339.600 333.297,339.015 333.659,338.300 333.970 C 337.585 334.281,336.910 334.648,336.800 334.785 C 336.690 334.922,335.565 335.551,334.300 336.183 C 333.035 336.814,332.000 337.445,332.000 337.585 C 332.000 337.725,331.325 338.081,330.500 338.376 C 329.675 338.671,328.872 339.112,328.715 339.356 C 328.558 339.600,328.288 339.801,328.115 339.802 C 327.845 339.804,326.296 340.640,324.000 342.021 C 323.670 342.220,322.095 343.029,320.500 343.819 C 318.905 344.609,317.600 345.395,317.600 345.565 C 317.600 345.734,316.880 346.089,316.000 346.353 C 315.120 346.616,314.400 346.983,314.400 347.168 C 314.400 347.352,313.815 347.740,313.100 348.029 C 312.385 348.318,311.710 348.655,311.600 348.777 C 311.490 348.900,310.770 349.320,310.000 349.710 C 309.230 350.101,307.340 351.131,305.800 352.001 C 304.260 352.870,302.550 353.806,302.000 354.082 C 301.450 354.358,300.910 354.692,300.800 354.824 C 300.690 354.956,300.015 355.319,299.300 355.630 C 298.585 355.941,298.000 356.324,298.000 356.482 C 298.000 356.639,297.280 356.984,296.400 357.247 C 295.520 357.511,294.800 357.856,294.800 358.015 C 294.800 358.173,294.260 358.527,293.600 358.800 C 292.940 359.073,292.400 359.441,292.400 359.617 C 292.400 359.793,291.861 360.055,291.202 360.199 C 290.544 360.344,289.869 360.693,289.702 360.975 C 289.536 361.256,288.725 361.706,287.900 361.974 C 287.075 362.243,286.400 362.594,286.400 362.756 C 286.400 362.918,285.770 363.298,285.000 363.600 C 284.230 363.902,283.600 364.267,283.600 364.411 C 283.600 364.554,282.889 364.906,282.021 365.193 C 281.152 365.480,280.355 365.942,280.248 366.219 C 280.141 366.497,279.502 366.846,278.827 366.994 C 278.152 367.142,277.600 367.412,277.600 367.593 C 277.600 367.774,277.060 368.110,276.400 368.340 C 275.740 368.570,275.200 368.928,275.200 369.136 C 275.200 369.343,274.755 369.625,274.212 369.761 C 273.669 369.898,272.364 370.531,271.312 371.170 C 270.260 371.808,268.275 372.923,266.900 373.647 C 265.525 374.371,264.400 375.078,264.400 375.219 C 264.400 375.359,263.680 375.689,262.800 375.953 C 261.920 376.216,261.200 376.583,261.200 376.768 C 261.200 376.952,260.615 377.340,259.900 377.629 C 259.185 377.918,258.510 378.261,258.400 378.391 C 258.290 378.521,256.940 379.251,255.400 380.014 C 253.860 380.776,252.510 381.490,252.400 381.601 C 252.290 381.711,251.660 382.071,251.000 382.400 C 250.340 382.729,249.710 383.099,249.600 383.221 C 249.490 383.343,248.230 384.043,246.800 384.776 C 245.370 385.510,244.110 386.241,244.000 386.401 C 243.890 386.561,243.396 386.818,242.902 386.972 C 242.409 387.126,241.779 387.466,241.502 387.727 C 241.226 387.989,239.965 388.718,238.700 389.349 C 237.435 389.979,236.400 390.625,236.400 390.784 C 236.400 390.943,235.680 391.289,234.800 391.553 C 233.920 391.816,233.200 392.169,233.200 392.336 C 233.200 392.503,232.570 392.867,231.800 393.146 C 231.030 393.424,230.400 393.820,230.400 394.026 C 230.400 394.232,230.175 394.401,229.900 394.401 C 229.625 394.402,228.770 394.799,228.000 395.282 C 227.230 395.766,226.510 396.195,226.400 396.235 C 226.290 396.275,225.795 396.439,225.300 396.600 C 224.805 396.762,224.400 397.030,224.400 397.198 C 224.400 397.366,223.815 397.740,223.100 398.029 C 222.385 398.318,221.710 398.661,221.600 398.791 C 221.490 398.921,220.185 399.643,218.700 400.396 C 217.215 401.148,216.000 401.878,216.000 402.019 C 216.000 402.159,215.280 402.489,214.400 402.753 C 213.520 403.016,212.800 403.383,212.800 403.568 C 212.800 403.752,212.215 404.140,211.500 404.429 C 210.785 404.718,210.110 405.062,210.000 405.192 C 209.890 405.323,208.765 405.963,207.501 406.615 C 206.236 407.267,205.201 407.921,205.201 408.068 C 205.200 408.216,204.661 408.455,204.002 408.599 C 203.344 408.744,202.669 409.073,202.502 409.331 C 202.335 409.589,201.254 410.295,200.100 410.900 L 198.000 412.000 197.930 403.400 C 197.892 398.670,197.826 394.305,197.785 393.700 C 197.635 391.502,197.054 363.763,197.130 362.446 C 197.173 361.701,197.051 360.891,196.858 360.646 C 196.531 360.228,196.386 355.398,195.745 323.600 C 195.606 316.670,195.329 310.793,195.131 310.541 C 194.932 310.288,194.803 309.478,194.845 308.741 C 194.917 307.457,194.334 278.870,194.193 276.800 C 194.156 276.250,194.097 274.225,194.062 272.300 L 194.000 268.800 192.375 268.800 L 190.750 268.800 190.964 272.700 C 191.212 277.220,191.752 303.141,191.641 305.166 C 191.600 305.917,191.727 306.637,191.924 306.766 C 192.121 306.895,192.397 312.490,192.537 319.200 C 192.677 325.910,192.908 337.070,193.049 344.000 C 193.190 350.930,193.444 356.780,193.613 357.000 C 193.781 357.220,194.039 364.510,194.186 373.200 C 194.333 381.890,194.527 389.882,194.618 390.960 C 194.708 392.038,194.813 396.037,194.851 399.847 C 194.889 403.656,195.073 406.678,195.260 406.563 C 195.447 406.447,195.600 407.533,195.600 408.976 C 195.600 410.459,195.426 411.600,195.200 411.600 C 194.980 411.600,194.800 411.454,194.800 411.275 C 194.800 411.096,194.170 410.702,193.400 410.400 C 192.630 410.098,192.000 409.726,192.000 409.574 C 192.000 409.422,191.460 409.073,190.800 408.800 C 190.140 408.527,189.600 408.167,189.600 408.000 C 189.600 407.833,189.060 407.473,188.400 407.200 C 187.740 406.927,187.200 406.548,187.200 406.359 C 187.200 406.170,186.750 405.902,186.200 405.764 C 185.650 405.626,185.200 405.364,185.200 405.183 C 185.200 405.001,184.570 404.624,183.800 404.346 C 183.030 404.067,182.400 403.686,182.400 403.499 C 182.400 403.312,181.860 402.970,181.200 402.740 C 180.540 402.510,180.000 402.181,180.000 402.009 C 180.000 401.838,179.460 401.473,178.800 401.200 C 178.140 400.927,177.600 400.581,177.600 400.432 C 177.600 400.283,176.970 399.933,176.200 399.654 C 175.430 399.376,174.800 399.002,174.800 398.823 C 174.800 398.644,174.260 398.273,173.600 398.000 C 172.940 397.727,172.400 397.378,172.400 397.226 C 172.400 397.074,171.770 396.702,171.000 396.400 C 170.230 396.098,169.600 395.738,169.600 395.600 C 169.600 395.462,168.970 395.102,168.200 394.800 C 167.430 394.498,166.800 394.095,166.800 393.905 C 166.800 393.714,166.260 393.370,165.600 393.140 C 164.940 392.910,164.400 392.581,164.400 392.409 C 164.400 392.238,163.815 391.859,163.100 391.567 C 162.385 391.276,161.620 390.828,161.400 390.572 C 161.180 390.317,160.190 389.678,159.200 389.154 C 158.210 388.629,157.289 388.049,157.154 387.864 C 156.865 387.469,155.523 386.669,153.700 385.805 C 152.985 385.466,152.400 385.056,152.400 384.892 C 152.400 384.729,151.815 384.341,151.100 384.030 C 150.385 383.719,149.710 383.359,149.600 383.231 C 149.222 382.790,145.147 380.400,144.773 380.400 C 144.568 380.400,144.400 380.232,144.400 380.026 C 144.400 379.820,143.770 379.424,143.000 379.146 C 142.230 378.867,141.600 378.491,141.600 378.310 C 141.600 378.128,141.195 377.808,140.700 377.597 C 140.205 377.386,139.080 376.765,138.200 376.217 C 137.320 375.669,136.069 374.923,135.420 374.559 C 134.770 374.194,133.992 373.650,133.691 373.348 C 133.390 373.047,132.989 372.800,132.800 372.800 C 132.611 372.800,132.212 372.575,131.912 372.300 C 131.207 371.654,130.055 370.918,128.800 370.311 C 128.250 370.045,127.243 369.416,126.562 368.914 C 125.881 368.411,125.116 368.000,124.862 368.000 C 124.608 368.000,124.400 367.854,124.400 367.675 C 124.400 367.496,123.770 367.102,123.000 366.800 C 122.230 366.498,121.600 366.095,121.600 365.905 C 121.600 365.714,121.060 365.370,120.400 365.140 C 119.740 364.910,119.200 364.571,119.200 364.387 C 119.200 364.203,118.580 363.827,117.821 363.553 C 117.063 363.279,116.515 362.938,116.603 362.795 C 116.691 362.652,116.142 362.291,115.382 361.993 C 114.622 361.695,114.000 361.322,114.000 361.164 C 114.000 361.007,113.460 360.690,112.800 360.460 C 112.140 360.230,111.600 359.886,111.600 359.695 C 111.600 359.505,110.970 359.102,110.200 358.800 C 109.430 358.498,108.800 358.126,108.800 357.974 C 108.800 357.822,108.215 357.461,107.500 357.172 C 106.785 356.883,106.056 356.411,105.880 356.123 C 105.704 355.836,105.391 355.600,105.184 355.600 C 104.978 355.600,103.772 354.880,102.504 354.001 C 101.237 353.121,99.975 352.401,99.700 352.401 C 99.425 352.400,99.200 352.242,99.200 352.049 C 99.200 351.855,98.615 351.461,97.900 351.172 C 97.185 350.883,96.456 350.411,96.280 350.123 C 96.104 349.836,95.772 349.600,95.542 349.600 C 95.312 349.600,94.556 349.195,93.862 348.701 C 93.168 348.206,92.458 347.801,92.285 347.801 C 92.112 347.800,91.842 347.610,91.685 347.377 C 91.528 347.145,90.815 346.718,90.100 346.429 C 89.385 346.140,88.800 345.767,88.800 345.600 C 88.800 345.433,88.260 345.073,87.600 344.800 C 86.940 344.527,86.400 344.178,86.400 344.026 C 86.400 343.874,85.770 343.502,85.000 343.200 C 84.230 342.898,83.600 342.538,83.600 342.400 C 83.600 342.262,82.978 341.905,82.218 341.607 C 81.458 341.309,80.920 340.930,81.022 340.765 C 81.124 340.600,80.576 340.256,79.804 340.001 C 79.032 339.746,78.400 339.394,78.400 339.218 C 78.400 339.041,77.860 338.673,77.200 338.400 C 76.540 338.127,76.000 337.745,76.000 337.551 C 76.000 337.358,75.758 337.200,75.461 337.200 C 75.165 337.200,74.502 336.835,73.987 336.389 C 73.473 335.943,72.649 335.477,72.155 335.353 C 71.662 335.229,71.161 334.874,71.041 334.564 C 70.922 334.254,70.647 334.000,70.430 334.000 C 70.074 334.000,67.602 332.505,66.600 331.683 C 66.380 331.503,65.615 331.097,64.900 330.780 C 64.185 330.464,63.600 330.069,63.600 329.902 C 63.600 329.736,63.403 329.600,63.162 329.600 C 62.921 329.600,62.159 329.195,61.470 328.700 C 59.952 327.610,59.037 327.057,57.200 326.116 C 56.430 325.722,55.656 325.175,55.480 324.900 C 55.304 324.625,54.894 324.400,54.568 324.400 C 54.242 324.400,53.876 324.141,53.754 323.824 C 53.633 323.508,52.996 323.131,52.340 322.987 C 51.683 322.843,51.061 322.502,50.956 322.230 C 50.852 321.959,50.144 321.492,49.383 321.193 C 48.623 320.895,48.000 320.500,48.000 320.315 C 48.000 320.131,47.595 319.802,47.100 319.584 C 46.605 319.366,45.712 318.876,45.116 318.494 C 42.210 316.634,39.045 314.800,38.740 314.800 C 38.553 314.800,38.400 314.620,38.400 314.400 C 38.400 314.180,38.152 314.000,37.849 314.000 C 37.546 314.000,37.076 313.732,36.804 313.404 C 36.532 313.077,36.150 312.907,35.955 313.028 C 35.760 313.149,35.600 313.047,35.600 312.803 C 35.600 312.558,35.060 312.170,34.400 311.940 C 33.740 311.710,33.200 311.381,33.200 311.209 C 33.200 311.038,32.660 310.673,32.000 310.400 C 31.340 310.127,30.800 309.757,30.800 309.578 C 30.800 309.400,30.395 309.127,29.900 308.972 C 29.405 308.817,28.605 308.382,28.122 308.005 L 27.244 307.320 29.043 306.421 C 30.032 305.927,31.057 305.491,31.321 305.452 C 31.584 305.413,32.685 304.887,33.767 304.282 C 34.848 303.677,36.198 303.072,36.767 302.937 C 37.335 302.803,38.070 302.469,38.400 302.197 C 38.730 301.924,39.645 301.494,40.433 301.242 C 41.221 300.989,42.564 300.426,43.417 299.991 C 44.271 299.556,45.201 299.200,45.485 299.200 C 45.768 299.200,46.000 299.059,46.000 298.887 C 46.000 298.715,46.809 298.336,47.797 298.044 C 48.785 297.752,49.508 297.375,49.403 297.205 C 49.299 297.036,49.795 296.763,50.506 296.598 C 51.218 296.433,52.021 296.247,52.292 296.186 C 52.563 296.124,53.070 295.787,53.421 295.437 C 53.771 295.086,54.272 294.800,54.534 294.800 C 54.797 294.800,55.684 294.440,56.506 293.999 C 57.327 293.559,58.044 293.225,58.100 293.258 C 58.365 293.415,60.000 292.708,60.000 292.436 C 60.000 292.266,60.762 291.898,61.693 291.619 C 62.624 291.340,65.189 290.256,67.393 289.209 C 69.597 288.163,71.805 287.180,72.300 287.026 C 72.795 286.872,73.200 286.593,73.200 286.405 C 73.200 286.217,73.770 285.938,74.466 285.786 C 75.162 285.633,76.539 285.078,77.525 284.554 C 78.512 284.029,79.562 283.600,79.860 283.600 C 80.157 283.600,80.400 283.459,80.400 283.287 C 80.400 283.115,81.210 282.735,82.200 282.443 C 83.190 282.151,84.000 281.752,84.000 281.556 C 84.000 281.360,84.225 281.198,84.500 281.196 C 84.775 281.194,85.900 280.750,87.000 280.209 C 88.100 279.668,89.124 279.219,89.276 279.213 C 89.428 279.206,91.082 278.480,92.952 277.600 C 94.822 276.720,96.475 276.000,96.626 276.000 C 96.871 276.000,99.764 274.693,104.600 272.398 C 108.172 270.703,110.773 269.600,111.198 269.600 C 111.445 269.600,111.536 269.420,111.400 269.200 C 110.783 268.201,102.000 269.296,102.000 270.372 C 102.000 270.560,101.511 270.836,100.913 270.986 C 100.315 271.136,98.903 271.696,97.774 272.229 C 96.646 272.763,95.515 273.200,95.261 273.200 C 95.008 273.200,94.800 273.377,94.800 273.594 C 94.800 273.811,93.990 274.192,93.000 274.442 C 92.010 274.691,91.200 275.034,91.200 275.204 C 91.200 275.374,90.720 275.634,90.134 275.781 C 89.548 275.928,87.645 276.746,85.905 277.599 C 84.166 278.451,82.215 279.265,81.571 279.406 C 80.927 279.548,80.400 279.800,80.400 279.968 C 80.400 280.135,79.680 280.510,78.800 280.800 C 77.920 281.090,77.200 281.479,77.200 281.664 C 77.200 281.849,76.919 282.000,76.575 282.000 C 76.231 282.000,75.016 282.435,73.875 282.966 C 72.734 283.497,70.900 284.340,69.800 284.838 C 68.700 285.337,67.710 285.874,67.600 286.031 C 67.490 286.188,66.608 286.530,65.640 286.790 C 64.672 287.050,63.631 287.512,63.327 287.816 C 63.023 288.120,62.150 288.486,61.387 288.629 C 60.624 288.772,60.000 289.020,60.000 289.180 C 60.000 289.341,59.280 289.710,58.400 290.000 C 57.520 290.290,56.800 290.656,56.800 290.812 C 56.800 290.968,55.990 291.323,55.000 291.600 C 54.010 291.877,53.200 292.237,53.200 292.400 C 53.200 292.563,52.390 292.923,51.400 293.200 C 50.410 293.477,49.600 293.837,49.600 294.000 C 49.600 294.163,48.790 294.523,47.800 294.800 C 46.810 295.077,46.000 295.439,46.000 295.604 C 46.000 295.770,45.190 296.109,44.200 296.358 C 43.210 296.608,42.400 296.989,42.400 297.206 C 42.400 297.423,42.187 297.600,41.926 297.600 C 41.666 297.600,40.676 297.960,39.726 298.400 C 38.777 298.840,37.145 299.584,36.100 300.053 C 35.055 300.523,32.760 301.595,31.000 302.436 C 29.240 303.277,27.305 304.083,26.700 304.226 C 26.095 304.369,25.600 304.658,25.600 304.867 C 25.600 305.076,25.451 305.155,25.270 305.043 C 25.088 304.931,24.697 300.960,24.401 296.219 C 24.105 291.479,23.744 287.600,23.598 287.600 C 23.453 287.600,23.331 287.375,23.329 287.100 C 23.305 284.263,22.227 270.457,21.995 270.000 C 21.826 269.670,21.457 265.575,21.174 260.900 C 20.891 256.225,20.538 252.400,20.391 252.400 C 20.243 252.400,19.906 248.845,19.641 244.500 C 19.376 240.155,19.005 236.240,18.818 235.800 C 18.630 235.360,18.267 231.400,18.011 227.000 C 17.756 222.600,17.394 218.640,17.206 218.200 C 16.892 217.462,15.755 201.935,15.972 201.349 C 16.025 201.206,15.904 200.979,15.703 200.845 C 15.502 200.710,15.106 197.010,14.823 192.622 C 14.541 188.234,14.163 184.364,13.985 184.022 C 13.807 183.680,13.448 179.890,13.188 175.600 C 12.708 167.670,12.584 166.200,12.397 166.200 C 12.299 166.200,11.602 158.532,10.235 142.400 C 9.742 136.573,9.256 132.184,8.995 131.200 C 8.966 131.090,8.798 128.439,8.620 125.308 C 8.443 122.177,8.141 119.713,7.949 119.831 C 7.757 119.950,7.577 118.777,7.550 117.224 C 7.522 115.671,7.466 114.265,7.425 114.100 C 7.384 113.935,7.206 111.237,7.030 108.104 C 6.854 104.971,6.583 102.487,6.428 102.583 C 6.272 102.679,5.922 99.032,5.650 94.479 C 5.378 89.925,5.001 85.840,4.814 85.400 C 4.405 84.440,3.456 71.210,3.774 70.893 C 4.064 70.603,7.200 71.638,7.200 72.024 C 7.200 72.187,8.100 72.536,9.200 72.800 C 10.300 73.064,11.200 73.443,11.200 73.641 C 11.200 73.840,12.010 74.220,13.000 74.484 C 13.990 74.749,14.800 75.089,14.800 75.239 C 14.800 75.389,15.610 75.751,16.600 76.043 C 17.590 76.335,18.400 76.715,18.400 76.887 C 18.400 77.059,18.643 77.200,18.940 77.200 C 19.238 77.200,20.318 77.645,21.340 78.189 C 22.363 78.733,23.200 79.078,23.200 78.956 C 23.200 78.834,23.785 79.090,24.500 79.524 C 25.215 79.958,26.385 80.437,27.100 80.589 C 27.815 80.740,28.400 81.000,28.400 81.168 C 28.400 81.335,29.165 81.718,30.100 82.019 C 31.035 82.320,31.890 82.670,32.000 82.797 C 32.110 82.923,33.460 83.543,35.000 84.174 C 36.540 84.805,38.340 85.641,39.000 86.031 C 39.660 86.422,40.336 86.752,40.502 86.764 C 41.418 86.830,42.800 87.328,42.800 87.591 C 42.800 87.759,43.610 88.123,44.600 88.400 C 45.590 88.677,46.400 89.043,46.400 89.212 C 46.400 89.382,47.300 89.736,48.399 90.000 C 49.499 90.264,50.308 90.625,50.198 90.803 C 50.089 90.980,50.899 91.356,51.999 91.638 C 53.100 91.921,54.000 92.268,54.000 92.412 C 54.000 92.555,54.720 92.910,55.600 93.200 C 56.480 93.490,57.200 93.861,57.200 94.024 C 57.200 94.187,58.100 94.536,59.200 94.800 C 60.300 95.064,61.200 95.430,61.200 95.613 C 61.200 95.796,61.605 96.066,62.100 96.212 C 62.595 96.358,64.304 97.086,65.898 97.831 C 67.492 98.575,69.247 99.297,69.798 99.435 C 70.349 99.574,70.800 99.826,70.800 99.996 C 70.800 100.166,71.610 100.509,72.600 100.758 C 73.590 101.008,74.400 101.350,74.400 101.518 C 74.400 101.687,75.255 102.077,76.300 102.386 C 77.345 102.694,78.431 103.176,78.713 103.457 C 78.995 103.738,79.850 104.086,80.613 104.229 C 81.376 104.372,82.000 104.626,82.000 104.793 C 82.000 104.959,82.810 105.323,83.800 105.600 C 84.790 105.877,85.600 106.237,85.600 106.400 C 85.600 106.563,86.410 106.923,87.400 107.200 C 88.390 107.477,89.200 107.837,89.200 108.000 C 89.200 108.163,90.010 108.523,91.000 108.800 C 91.990 109.077,92.800 109.461,92.800 109.652 C 92.800 109.843,93.149 110.000,93.576 110.000 C 94.003 110.000,94.466 110.183,94.604 110.407 C 94.742 110.630,95.008 110.718,95.195 110.603 C 95.382 110.487,95.803 110.661,96.131 110.988 C 96.458 111.315,97.553 111.804,98.563 112.075 C 99.573 112.345,100.400 112.709,100.400 112.883 C 100.400 113.057,100.573 113.200,100.785 113.200 C 100.996 113.200,102.571 113.871,104.285 114.690 C 105.998 115.510,107.490 116.200,107.600 116.223 C 108.884 116.494,110.000 116.948,110.000 117.200 C 110.000 117.480,111.184 117.924,112.760 118.236 C 113.068 118.297,113.428 118.513,113.560 118.715 C 113.833 119.134,116.828 120.212,117.330 120.072 C 117.511 120.022,117.559 120.142,117.437 120.340 C 117.315 120.538,118.021 120.926,119.007 121.202 C 119.993 121.478,120.800 121.841,120.800 122.007 C 120.800 122.174,121.424 122.428,122.187 122.571 C 122.950 122.714,123.823 123.080,124.127 123.384 C 124.431 123.688,125.454 124.145,126.400 124.400 C 127.346 124.655,128.369 125.112,128.673 125.416 C 128.977 125.720,129.850 126.086,130.613 126.229 C 131.376 126.372,132.000 126.629,132.000 126.800 C 132.000 126.972,132.798 127.347,133.774 127.636 C 134.750 127.924,135.476 128.276,135.388 128.419 C 135.300 128.562,136.205 128.913,137.400 129.200 C 138.595 129.487,139.478 129.874,139.363 130.061 C 139.247 130.247,139.298 130.414,139.476 130.431 C 140.527 130.530,141.345 130.803,142.127 131.315 C 142.613 131.634,143.594 132.023,144.306 132.179 C 145.018 132.336,145.600 132.600,145.600 132.768 C 145.600 132.935,146.365 133.318,147.300 133.619 C 148.235 133.920,149.090 134.271,149.200 134.398 C 149.310 134.526,150.165 134.938,151.100 135.315 C 152.035 135.692,153.565 136.308,154.500 136.685 C 155.435 137.062,156.308 137.524,156.440 137.712 C 156.572 137.899,156.932 138.103,157.240 138.164 C 158.802 138.473,160.000 138.919,160.000 139.191 C 160.000 139.359,160.810 139.723,161.800 140.000 C 162.790 140.277,163.600 140.643,163.600 140.812 C 163.600 140.982,164.500 141.336,165.599 141.600 C 166.699 141.864,167.508 142.225,167.398 142.403 C 167.289 142.580,168.099 142.956,169.199 143.238 C 170.300 143.521,171.200 143.869,171.200 144.012 C 171.200 144.156,171.920 144.489,172.800 144.753 C 173.680 145.016,174.400 145.387,174.400 145.576 C 174.400 145.765,175.300 146.136,176.400 146.400 C 177.500 146.664,178.400 147.030,178.400 147.213 C 178.400 147.396,178.805 147.666,179.300 147.812 C 179.795 147.958,181.512 148.690,183.115 149.439 C 184.719 150.187,186.204 150.800,186.415 150.800 C 186.627 150.800,186.832 151.790,186.870 153.000 C 186.909 154.210,186.983 155.695,187.035 156.300 C 187.088 156.905,187.163 160.685,187.203 164.700 C 187.243 168.715,187.439 172.100,187.638 172.223 C 187.837 172.347,188.000 174.597,188.000 177.224 L 188.000 182.000 189.600 182.000 L 191.200 182.000 191.200 179.497 C 191.200 178.121,191.032 176.407,190.826 175.690 C 190.593 174.879,190.593 174.472,190.826 174.616 C 191.032 174.743,191.200 174.556,191.200 174.200 C 191.200 173.844,191.020 173.664,190.800 173.800 C 190.539 173.961,190.394 171.566,190.382 166.924 C 190.372 163.006,190.264 157.798,190.143 155.352 L 189.922 150.904 191.361 150.634 C 192.152 150.485,192.800 150.214,192.800 150.032 C 192.800 149.849,193.385 149.562,194.100 149.394 C 195.810 148.992,195.620 149.063,197.080 148.283 C 197.784 147.907,198.639 147.600,198.980 147.600 C 199.321 147.600,199.600 147.464,199.600 147.297 C 199.600 146.961,202.429 146.000,203.417 146.000 C 203.764 146.000,203.938 145.823,203.805 145.608 C 203.669 145.389,204.274 145.102,205.174 144.958 C 206.060 144.816,206.990 144.453,207.241 144.150 C 208.645 142.459,208.800 143.338,208.800 153.000 C 208.800 159.000,208.945 162.400,209.200 162.400 C 209.456 162.400,209.600 165.933,209.600 172.200 L 209.600 182.000 210.800 182.000 C 211.999 182.000,212.170 181.576,212.089 178.800 C 212.086 178.690,211.952 170.385,211.793 160.343 L 211.502 142.087 213.151 141.808 C 214.058 141.655,214.951 141.259,215.136 140.929 C 215.321 140.599,215.636 140.339,215.836 140.353 C 216.442 140.393,219.386 139.536,219.600 139.256 C 219.710 139.113,220.520 138.754,221.400 138.459 C 222.884 137.962,223.754 137.600,227.660 135.853 C 228.464 135.494,229.396 135.200,229.732 135.200 C 230.068 135.200,230.581 134.965,230.871 134.677 C 231.162 134.389,232.255 133.916,233.300 133.625 C 234.345 133.334,235.200 132.939,235.200 132.748 C 235.200 132.557,235.421 132.400,235.690 132.400 C 236.292 132.400,241.723 130.320,242.000 129.983 C 242.110 129.850,243.055 129.506,244.100 129.218 C 245.145 128.931,246.000 128.562,246.000 128.398 C 246.000 128.116,248.227 127.517,248.560 127.710 C 248.646 127.759,249.050 127.502,249.458 127.137 C 249.866 126.773,251.010 126.259,252.000 125.996 C 252.990 125.733,253.890 125.401,254.000 125.259 C 254.201 124.998,256.670 124.018,260.000 122.876 C 260.990 122.537,261.890 122.131,262.000 121.974 C 262.110 121.817,263.010 121.452,264.000 121.164 C 264.990 120.875,265.908 120.483,266.040 120.293 C 266.172 120.103,266.532 119.897,266.840 119.836 C 268.480 119.511,269.600 119.073,269.600 118.757 C 269.600 118.560,269.979 118.400,270.442 118.400 C 270.905 118.400,272.180 117.950,273.275 117.400 C 274.370 116.850,275.441 116.400,275.655 116.400 C 275.869 116.400,276.799 116.066,277.722 115.658 C 278.645 115.250,280.480 114.487,281.800 113.962 C 283.120 113.437,284.297 112.877,284.415 112.717 C 284.534 112.558,285.573 112.186,286.726 111.891 C 287.878 111.596,288.720 111.253,288.595 111.129 C 288.471 111.004,289.141 110.706,290.085 110.465 C 291.028 110.225,292.513 109.662,293.385 109.214 C 294.256 108.766,295.291 108.400,295.685 108.400 C 296.078 108.400,296.400 108.238,296.400 108.040 C 296.400 107.842,297.300 107.464,298.400 107.200 C 299.500 106.936,300.400 106.591,300.400 106.432 C 300.400 106.274,301.300 105.900,302.400 105.600 C 303.500 105.300,304.400 104.947,304.400 104.815 C 304.400 104.683,305.212 104.335,306.205 104.042 C 307.197 103.749,308.676 103.169,309.489 102.754 C 310.303 102.339,311.291 102.000,311.685 102.000 C 312.078 102.000,312.400 101.828,312.400 101.618 C 312.400 101.408,313.032 101.118,313.804 100.973 C 314.577 100.828,315.297 100.566,315.405 100.392 C 315.513 100.217,316.591 99.763,317.801 99.382 C 319.010 99.002,320.000 98.549,320.000 98.377 C 320.000 98.205,320.585 97.942,321.300 97.793 C 322.015 97.643,322.979 97.282,323.442 96.990 C 323.904 96.697,324.939 96.335,325.742 96.185 C 326.544 96.034,327.200 95.750,327.200 95.554 C 327.200 95.358,328.010 94.980,329.000 94.716 C 329.990 94.451,330.800 94.104,330.800 93.946 C 330.800 93.787,331.784 93.437,332.986 93.168 C 334.189 92.899,335.091 92.548,334.993 92.388 C 334.828 92.122,336.999 91.500,337.360 91.710 C 337.446 91.759,337.850 91.516,338.258 91.169 C 338.666 90.822,339.808 90.307,340.797 90.024 C 341.785 89.741,342.950 89.260,343.386 88.955 C 343.821 88.650,344.485 88.400,344.860 88.400 C 345.236 88.400,345.781 88.162,346.071 87.871 C 346.362 87.581,346.736 87.313,346.901 87.277 C 349.095 86.796,350.800 86.250,350.800 86.028 C 350.800 85.876,351.700 85.521,352.801 85.238 C 353.901 84.956,354.713 84.582,354.604 84.407 C 354.496 84.231,355.080 83.963,355.904 83.810 C 356.727 83.657,357.670 83.302,358.000 83.020 C 358.531 82.567,359.842 82.104,361.560 81.764 C 361.868 81.703,362.228 81.489,362.360 81.288 C 362.492 81.087,363.134 80.792,363.786 80.632 C 364.438 80.472,365.734 79.995,366.664 79.571 C 367.595 79.147,368.636 78.800,368.978 78.800 C 369.320 78.800,369.600 78.641,369.600 78.447 C 369.600 78.254,370.410 77.891,371.400 77.642 C 372.390 77.392,373.200 77.029,373.200 76.834 C 373.200 76.639,374.100 76.264,375.200 76.000 C 376.300 75.736,377.200 75.381,377.200 75.210 C 377.200 74.955,378.778 74.432,380.115 74.244 C 380.288 74.220,380.578 73.960,380.759 73.666 C 380.941 73.372,381.159 73.166,381.245 73.208 C 381.597 73.382,384.785 72.349,385.007 71.989 C 385.139 71.775,385.559 71.600,385.939 71.600 C 386.320 71.600,387.344 71.236,388.215 70.790 C 389.087 70.345,390.520 69.786,391.400 69.549 C 392.280 69.311,393.090 68.983,393.200 68.819 C 393.398 68.522,395.469 67.692,396.160 67.632 C 396.371 67.613,396.416 71.623,396.269 77.300 M366.193 225.400 C 366.193 248.500,366.241 257.891,366.300 246.269 C 366.359 234.648,366.359 215.748,366.300 204.269 C 366.241 192.791,366.193 202.300,366.193 225.400 M361.600 225.320 L 361.800 263.800 361.902 225.622 C 361.958 204.624,361.868 187.308,361.702 187.142 C 361.536 186.976,361.490 204.156,361.600 225.320 M38.192 225.800 C 38.192 247.140,38.241 255.811,38.300 245.070 C 38.359 234.328,38.359 216.868,38.300 206.270 C 38.241 195.671,38.192 204.460,38.192 225.800 M210.163 204.405 C 210.470 222.612,210.536 221.978,208.296 222.540 C 207.333 222.782,207.200 223.007,207.200 224.395 C 207.200 225.898,207.942 226.276,208.800 225.210 C 210.321 223.318,212.127 223.779,222.206 228.634 C 223.309 229.165,224.434 229.600,224.706 229.600 C 224.978 229.600,225.200 229.773,225.200 229.984 C 225.200 230.195,225.920 230.584,226.800 230.847 C 227.680 231.111,228.400 231.466,228.400 231.636 C 228.400 231.807,228.805 232.069,229.300 232.220 C 229.795 232.371,231.150 232.923,232.312 233.447 C 233.473 233.971,234.609 234.400,234.835 234.400 C 235.062 234.400,235.136 234.580,235.000 234.800 C 234.864 235.020,235.024 235.200,235.355 235.200 C 235.687 235.200,236.804 235.650,237.838 236.200 C 238.873 236.750,239.962 237.200,240.260 237.200 C 240.557 237.200,240.800 237.366,240.800 237.569 C 240.800 237.772,241.470 238.159,242.289 238.429 C 243.108 238.700,244.021 239.164,244.318 239.460 C 245.494 240.637,246.638 239.656,246.174 237.868 C 245.944 236.979,242.013 234.800,240.640 234.800 C 240.262 234.800,240.055 234.635,240.180 234.433 C 240.305 234.230,239.878 233.949,239.231 233.807 C 238.584 233.665,237.841 233.290,237.579 232.974 C 237.317 232.658,236.899 232.399,236.651 232.398 C 236.403 232.397,234.076 231.330,231.481 230.026 C 228.885 228.722,226.230 227.538,225.581 227.396 C 224.931 227.253,224.400 227.000,224.400 226.832 C 224.400 226.665,223.680 226.290,222.800 226.000 C 221.920 225.710,221.200 225.350,221.200 225.200 C 221.200 225.050,220.480 224.690,219.600 224.400 C 218.720 224.110,218.000 223.757,218.000 223.616 C 218.000 223.476,217.325 223.118,216.500 222.821 C 213.023 221.569,213.346 223.251,213.013 204.690 C 212.703 187.356,212.736 187.618,210.839 187.606 L 209.879 187.600 210.163 204.405 M177.785 225.600 C 177.785 235.830,177.836 240.015,177.900 234.900 C 177.963 229.785,177.963 221.415,177.900 216.300 C 177.836 211.185,177.785 215.370,177.785 225.600 M89.393 224.000 L 89.400 240.200 93.400 240.221 L 97.400 240.242 93.504 240.107 L 89.609 239.972 89.498 223.886 L 89.387 207.800 89.393 224.000 M148.581 225.200 C 148.581 233.230,148.634 236.515,148.699 232.500 C 148.765 228.485,148.765 221.915,148.699 217.900 C 148.634 213.885,148.581 217.170,148.581 225.200 M56.705 240.283 C 57.202 240.379,57.922 240.375,58.305 240.275 C 58.687 240.175,58.280 240.096,57.400 240.101 C 56.520 240.105,56.207 240.187,56.705 240.283 M255.900 243.232 C 254.891 243.820,255.039 244.673,256.200 244.964 C 256.750 245.102,257.200 245.392,257.200 245.608 C 257.200 245.823,257.425 246.001,257.700 246.002 C 257.975 246.002,259.280 246.542,260.600 247.200 C 261.920 247.858,263.225 248.398,263.500 248.398 C 263.775 248.399,264.000 248.551,264.000 248.736 C 264.000 248.921,264.765 249.318,265.700 249.619 C 266.635 249.920,267.490 250.275,267.600 250.408 C 267.794 250.643,273.333 253.368,277.400 255.229 C 278.500 255.733,279.490 256.272,279.600 256.428 C 279.710 256.584,280.565 256.940,281.500 257.219 C 282.435 257.498,283.200 257.871,283.200 258.047 C 283.200 258.224,283.920 258.584,284.800 258.847 C 285.680 259.111,286.400 259.471,286.400 259.647 C 286.400 259.824,287.120 260.184,288.000 260.447 C 288.880 260.711,289.600 261.055,289.600 261.211 C 289.600 261.368,290.407 261.722,291.393 261.998 C 292.379 262.274,293.088 262.657,292.969 262.850 C 292.850 263.042,294.293 263.200,296.176 263.200 C 298.192 263.200,299.600 263.036,299.600 262.800 C 299.600 262.580,299.327 262.400,298.993 262.400 C 298.659 262.400,297.447 261.909,296.301 261.310 C 295.154 260.710,293.960 260.182,293.648 260.137 C 293.336 260.091,292.972 259.887,292.840 259.685 C 292.708 259.482,291.925 259.096,291.100 258.827 C 290.275 258.558,289.600 258.172,289.600 257.969 C 289.600 257.766,289.375 257.599,289.100 257.598 C 288.825 257.598,287.520 257.058,286.200 256.400 C 284.880 255.742,283.474 255.202,283.076 255.202 C 282.678 255.201,282.463 255.022,282.597 254.804 C 282.733 254.586,282.037 254.193,281.045 253.927 C 280.056 253.663,279.321 253.328,279.411 253.183 C 279.500 253.038,278.815 252.692,277.887 252.415 C 276.959 252.138,276.110 251.796,276.000 251.656 C 275.678 251.244,268.998 248.065,267.849 247.777 C 267.272 247.632,266.800 247.360,266.800 247.173 C 266.800 246.985,266.080 246.616,265.200 246.353 C 264.320 246.089,263.600 245.736,263.600 245.568 C 263.600 245.400,262.925 245.042,262.100 244.773 C 261.275 244.504,260.510 244.171,260.400 244.034 C 259.596 243.028,257.034 242.572,255.900 243.232 " stroke="none" fill="#4cfcfc" fill-rule="evenodd"></path><path id="path1" d="M34.400 225.400 L 34.400 267.600 200.200 267.600 L 366.000 267.600 366.000 225.400 L 366.000 183.200 200.200 183.200 L 34.400 183.200 34.400 225.400 M361.520 186.880 C 362.216 187.576,362.216 263.224,361.520 263.920 C 361.148 264.292,324.613 264.400,199.520 264.400 L 38.000 264.400 38.000 226.033 C 38.000 204.931,38.109 187.381,38.243 187.033 C 38.564 186.197,360.685 186.045,361.520 186.880 M148.155 206.275 C 147.690 206.366,146.790 206.984,146.155 207.647 L 145.000 208.853 145.000 225.219 L 145.000 241.585 146.217 242.801 C 148.538 245.123,154.071 244.816,155.617 242.280 C 156.319 241.127,156.888 230.800,156.249 230.800 C 153.756 230.800,152.800 232.414,152.800 236.623 C 152.800 240.464,151.997 241.635,149.909 240.841 C 148.408 240.271,148.400 240.184,148.400 225.200 C 148.400 210.216,148.408 210.129,149.909 209.559 C 152.193 208.690,152.800 209.835,152.800 215.009 C 152.800 217.534,152.935 219.591,153.100 219.581 C 153.265 219.570,154.030 219.254,154.800 218.878 L 156.200 218.194 156.306 213.797 C 156.469 206.980,154.380 205.051,148.155 206.275 M52.197 206.865 C 52.084 207.159,52.038 215.590,52.096 225.600 L 52.200 243.800 56.669 243.800 C 63.542 243.800,64.147 242.888,63.932 232.864 C 63.803 226.878,63.775 226.707,62.800 225.906 C 62.134 225.359,61.970 225.024,62.308 224.906 C 64.965 223.975,64.727 209.822,62.014 207.400 C 60.875 206.383,52.555 205.929,52.197 206.865 M85.600 225.177 L 85.600 244.000 90.367 244.000 C 96.021 244.000,96.208 243.945,97.218 241.964 L 98.002 240.427 93.701 240.314 L 89.400 240.200 89.200 223.400 L 89.000 206.600 87.300 206.477 L 85.600 206.354 85.600 225.177 M116.659 208.100 C 115.726 214.442,114.697 221.342,114.019 225.800 C 113.583 228.660,112.864 233.430,112.420 236.400 C 111.977 239.370,111.506 242.295,111.375 242.900 C 111.139 243.988,111.159 244.000,113.181 244.000 C 115.600 244.000,115.300 244.717,116.365 236.400 C 118.638 218.660,118.838 217.653,119.333 221.500 C 119.467 222.545,119.954 226.280,120.415 229.800 C 120.875 233.320,121.465 237.910,121.726 240.000 L 122.200 243.800 124.300 243.921 C 125.455 243.987,126.400 243.897,126.401 243.721 C 126.401 243.544,126.140 241.870,125.821 240.000 C 125.249 236.658,124.992 235.003,122.187 216.633 C 120.655 206.600,120.581 206.400,118.405 206.400 C 116.951 206.400,116.902 206.447,116.659 208.100 M178.267 206.667 C 178.120 206.813,178.000 215.273,178.000 225.467 L 178.000 244.000 179.800 244.000 L 181.600 244.000 181.600 236.120 C 181.600 228.072,181.797 227.331,182.909 231.200 C 183.257 232.410,183.928 234.660,184.401 236.200 C 184.873 237.740,185.577 240.080,185.964 241.400 L 186.669 243.800 188.534 243.922 C 190.804 244.070,190.789 244.215,189.053 238.800 C 183.484 221.424,183.730 224.593,187.200 214.944 C 190.485 205.810,190.395 206.398,188.500 206.406 C 186.347 206.415,186.326 206.446,184.229 212.600 C 181.603 220.310,181.626 220.307,181.612 212.900 L 181.600 206.400 180.067 206.400 C 179.223 206.400,178.413 206.520,178.267 206.667 M59.662 210.886 C 59.841 211.169,59.991 213.862,59.994 216.871 C 60.001 223.022,59.775 223.600,57.371 223.600 L 56.000 223.600 56.000 217.067 C 56.000 213.473,56.135 210.398,56.300 210.231 C 56.739 209.790,59.280 210.285,59.662 210.886 M59.371 227.429 C 59.882 227.940,60.000 229.094,60.000 233.600 C 60.000 239.828,59.779 240.400,57.371 240.400 L 56.000 240.400 56.000 233.600 L 56.000 226.800 57.371 226.800 C 58.126 226.800,59.026 227.083,59.371 227.429 " stroke="none" fill="#050505" fill-rule="evenodd"></path><path id="path2" d="M207.600 3.600 C 207.600 4.040,207.780 4.400,208.000 4.400 C 208.220 4.400,208.400 4.040,208.400 3.600 C 208.400 3.160,208.220 2.800,208.000 2.800 C 207.780 2.800,207.600 3.160,207.600 3.600 M205.324 9.800 C 205.326 11.120,205.401 11.612,205.490 10.893 C 205.579 10.174,205.577 9.094,205.486 8.493 C 205.395 7.892,205.322 8.480,205.324 9.800 M208.914 47.800 C 208.917 48.900,208.995 49.303,209.087 48.695 C 209.179 48.086,209.177 47.186,209.082 46.695 C 208.987 46.203,208.911 46.700,208.914 47.800 M206.493 54.800 C 206.493 55.570,206.575 55.885,206.676 55.500 C 206.776 55.115,206.776 54.485,206.676 54.100 C 206.575 53.715,206.493 54.030,206.493 54.800 M209.502 69.400 C 209.607 69.950,209.762 70.400,209.847 70.400 C 209.931 70.400,210.000 69.950,210.000 69.400 C 210.000 68.850,209.845 68.400,209.655 68.400 C 209.466 68.400,209.397 68.850,209.502 69.400 M206.893 76.400 C 206.893 77.170,206.975 77.485,207.076 77.100 C 207.176 76.715,207.176 76.085,207.076 75.700 C 206.975 75.315,206.893 75.630,206.893 76.400 M399.301 82.200 C 399.305 83.080,399.387 83.393,399.483 82.895 C 399.579 82.398,399.575 81.678,399.475 81.295 C 399.375 80.913,399.296 81.320,399.301 82.200 M398.901 95.400 C 398.905 96.280,398.987 96.593,399.083 96.095 C 399.179 95.598,399.175 94.878,399.075 94.495 C 398.975 94.113,398.896 94.520,398.901 95.400 M208.093 120.000 C 208.093 120.770,208.175 121.085,208.276 120.700 C 208.376 120.315,208.376 119.685,208.276 119.300 C 208.175 118.915,208.093 119.230,208.093 120.000 M394.093 135.600 C 394.093 136.370,394.175 136.685,394.276 136.300 C 394.376 135.915,394.376 135.285,394.276 134.900 C 394.175 134.515,394.093 134.830,394.093 135.600 M397.309 136.400 C 397.309 137.390,397.387 137.795,397.482 137.300 C 397.578 136.805,397.578 135.995,397.482 135.500 C 397.387 135.005,397.309 135.410,397.309 136.400 M393.412 148.517 C 393.241 148.912,393.213 149.347,393.351 149.484 C 393.757 149.890,394.084 149.320,393.897 148.531 C 393.732 147.833,393.710 147.832,393.412 148.517 M211.714 158.600 C 211.717 159.700,211.795 160.103,211.887 159.495 C 211.979 158.886,211.977 157.986,211.882 157.495 C 211.787 157.003,211.711 157.500,211.714 158.600 M208.800 163.376 C 208.800 163.913,208.980 164.464,209.200 164.600 C 209.433 164.744,209.600 164.337,209.600 163.624 C 209.600 162.951,209.420 162.400,209.200 162.400 C 208.980 162.400,208.800 162.839,208.800 163.376 M396.101 163.800 C 396.105 164.680,396.187 164.993,396.283 164.495 C 396.379 163.998,396.375 163.278,396.275 162.895 C 396.175 162.513,396.096 162.920,396.101 163.800 M187.701 173.800 C 187.705 174.680,187.787 174.993,187.883 174.495 C 187.979 173.998,187.975 173.278,187.875 172.895 C 187.775 172.513,187.696 172.920,187.701 173.800 M190.400 173.200 C 190.400 173.947,190.507 174.053,190.880 173.680 C 191.253 173.307,191.253 173.093,190.880 172.720 C 190.507 172.347,190.400 172.453,190.400 173.200 M212.067 180.500 L 212.000 182.000 122.600 182.000 L 33.200 182.000 33.200 225.596 L 33.200 269.192 172.700 269.192 C 249.425 269.193,324.506 269.192,339.546 269.191 C 354.587 269.190,367.052 269.091,367.246 268.971 C 367.448 268.847,367.600 250.062,367.600 225.376 L 367.600 182.000 290.024 182.000 L 212.448 182.000 212.291 180.500 L 212.134 179.000 212.067 180.500 M366.200 225.400 L 366.200 267.400 200.300 267.500 L 34.400 267.601 34.400 225.400 L 34.400 183.199 200.300 183.300 L 366.200 183.400 366.200 225.400 M38.667 186.667 C 38.520 186.813,38.400 204.364,38.400 225.667 L 38.400 264.401 199.900 264.300 L 361.400 264.200 361.510 226.200 C 361.570 205.300,361.522 187.795,361.402 187.300 L 361.185 186.400 200.059 186.400 C 111.440 186.400,38.813 186.520,38.667 186.667 M286.700 187.996 L 360.400 188.000 360.400 225.600 L 360.400 263.200 283.800 263.200 L 207.200 263.200 207.200 225.624 L 207.200 188.048 208.700 187.874 C 209.525 187.779,210.830 187.766,211.600 187.846 C 212.370 187.926,246.165 187.993,286.700 187.996 M391.778 190.435 C 391.631 190.674,391.710 191.070,391.955 191.315 C 392.282 191.642,392.400 191.526,392.400 190.880 C 392.400 189.914,392.192 189.765,391.778 190.435 M394.909 191.600 C 394.909 192.590,394.987 192.995,395.082 192.500 C 395.178 192.005,395.178 191.195,395.082 190.700 C 394.987 190.205,394.909 190.610,394.909 191.600 M279.500 206.744 C 278.895 207.362,278.400 208.077,278.400 208.333 C 278.400 208.590,278.220 208.800,278.000 208.800 C 277.740 208.800,277.600 214.533,277.600 225.200 C 277.600 235.867,277.740 241.600,278.000 241.600 C 278.220 241.600,278.400 241.844,278.400 242.142 C 278.400 242.440,278.975 243.160,279.677 243.742 C 282.361 245.966,290.400 244.766,290.400 242.142 C 290.400 241.844,290.580 241.600,290.800 241.600 C 291.060 241.600,291.200 235.867,291.200 225.200 C 291.200 214.533,291.060 208.800,290.800 208.800 C 290.580 208.800,290.400 208.556,290.400 208.258 C 290.400 205.578,281.812 204.386,279.500 206.744 M155.259 207.536 C 156.423 208.838,156.425 208.849,156.313 213.513 L 156.200 218.186 154.500 219.123 L 152.800 220.060 152.787 215.530 C 152.772 210.057,151.414 207.946,149.280 210.080 C 148.591 210.769,148.591 239.631,149.280 240.320 C 151.218 242.258,152.486 240.623,152.780 235.806 L 153.000 232.212 154.700 231.276 L 156.400 230.340 156.400 235.881 C 156.400 240.255,156.268 241.610,155.776 242.313 C 153.713 245.258,146.997 245.089,145.427 242.051 C 144.488 240.236,144.487 210.165,145.426 208.350 C 146.850 205.596,153.066 205.081,155.259 207.536 M246.016 225.200 L 246.048 244.400 250.624 244.400 C 253.472 244.400,255.200 244.246,255.200 243.991 C 255.200 243.767,255.695 243.364,256.300 243.096 C 258.308 242.208,258.374 241.918,258.387 233.844 C 258.399 227.113,258.324 226.229,257.700 225.744 C 257.033 225.226,257.033 225.174,257.700 224.656 C 258.323 224.171,258.400 223.274,258.400 216.469 L 258.400 208.827 256.987 207.413 L 255.573 206.000 250.778 206.000 L 245.983 206.000 246.016 225.200 M308.800 206.600 C 308.800 206.930,308.947 207.200,309.127 207.200 C 309.306 207.200,309.690 208.415,309.979 209.900 C 310.268 211.385,310.644 212.780,310.815 213.000 C 310.985 213.220,311.345 214.525,311.614 215.900 C 311.884 217.275,312.235 218.400,312.395 218.400 C 313.142 218.400,313.715 224.374,313.201 226.795 C 312.920 228.118,312.564 229.200,312.409 229.200 C 312.255 229.200,311.903 230.460,311.628 232.000 C 311.353 233.540,311.000 234.800,310.844 234.800 C 310.688 234.800,310.328 235.924,310.044 237.299 C 309.760 238.673,309.370 239.895,309.177 240.014 C 308.985 240.133,308.706 241.259,308.558 242.515 L 308.290 244.800 310.945 244.800 C 313.333 244.800,313.600 244.720,313.600 244.000 C 313.600 243.560,313.760 243.200,313.955 243.200 C 314.150 243.200,314.536 241.985,314.813 240.500 C 315.090 239.015,315.439 237.710,315.589 237.600 C 315.739 237.490,316.028 236.624,316.231 235.676 C 316.768 233.169,317.323 233.554,317.962 236.876 C 318.272 238.484,318.659 239.890,318.823 240.000 C 318.987 240.110,319.254 241.100,319.416 242.200 C 319.770 244.602,320.003 244.786,322.700 244.794 C 324.714 244.800,324.800 244.756,324.800 243.724 C 324.800 242.179,323.892 238.000,323.556 238.000 C 323.400 238.000,323.060 236.740,322.800 235.200 C 322.540 233.660,322.195 232.400,322.033 232.400 C 321.871 232.400,321.515 231.189,321.242 229.709 C 320.970 228.229,320.558 226.790,320.327 226.512 C 319.795 225.871,319.776 221.988,320.303 221.652 C 320.521 221.513,320.930 220.095,321.213 218.500 C 321.497 216.905,321.846 215.600,321.991 215.600 C 322.135 215.600,322.490 214.385,322.779 212.900 C 323.068 211.415,323.440 210.020,323.607 209.800 C 323.773 209.580,324.036 208.635,324.190 207.700 L 324.470 206.000 321.933 206.000 C 318.977 206.000,318.800 206.218,317.951 210.900 C 317.682 212.385,317.313 213.600,317.131 213.600 C 316.949 213.600,316.782 213.915,316.760 214.300 C 316.738 214.685,316.557 214.280,316.358 213.400 C 316.159 212.520,315.830 211.440,315.627 211.000 C 315.424 210.560,315.047 209.255,314.789 208.100 L 314.320 206.000 311.560 206.000 C 309.373 206.000,308.800 206.125,308.800 206.600 M61.281 206.827 C 63.966 208.076,65.424 221.077,63.215 224.065 L 62.376 225.200 63.215 226.335 C 64.004 227.402,64.047 227.882,63.927 234.367 L 63.800 241.263 62.306 242.632 L 60.812 244.000 56.406 244.000 L 52.000 244.000 52.000 225.200 L 52.000 206.400 56.181 206.400 C 58.481 206.400,60.776 206.592,61.281 206.827 M89.186 207.174 C 89.452 207.670,89.600 213.691,89.600 223.974 L 89.600 240.000 93.576 240.000 C 97.987 240.000,98.333 240.191,97.361 242.088 C 96.399 243.965,96.321 243.987,90.700 243.994 L 85.600 244.000 85.600 225.200 L 85.600 206.400 87.186 206.400 C 88.345 206.400,88.883 206.608,89.186 207.174 M120.547 207.300 C 120.859 207.795,121.233 209.100,121.380 210.200 C 121.639 212.137,122.406 217.208,124.013 227.600 C 124.439 230.350,125.150 234.951,125.593 237.824 C 126.037 240.698,126.400 243.263,126.400 243.524 C 126.400 243.832,125.651 244.000,124.275 244.000 L 122.151 244.000 121.270 237.300 C 120.785 233.615,120.087 228.305,119.717 225.500 C 119.118 220.953,118.400 218.715,118.400 221.395 C 118.400 221.941,118.060 224.866,117.645 227.895 C 117.230 230.923,116.565 235.785,116.169 238.700 L 115.449 244.000 113.324 244.000 C 111.891 244.000,111.201 243.837,111.202 243.500 C 111.202 243.225,111.549 240.840,111.971 238.200 C 112.870 232.589,113.573 227.979,115.209 217.000 C 115.864 212.600,116.498 208.415,116.618 207.700 C 116.901 206.013,119.568 205.742,120.547 207.300 M181.690 212.500 C 181.816 219.473,181.721 219.504,184.499 211.600 L 186.257 206.600 188.324 206.479 C 189.880 206.388,190.349 206.487,190.222 206.879 C 190.130 207.166,188.761 210.985,187.181 215.368 L 184.308 223.335 185.321 226.568 C 185.878 228.345,187.259 232.770,188.389 236.400 C 189.519 240.030,190.518 243.225,190.609 243.500 C 190.728 243.858,190.180 243.999,188.687 243.997 L 186.600 243.995 184.423 236.796 C 183.225 232.837,182.103 229.373,181.929 229.099 C 181.755 228.824,181.609 232.065,181.606 236.300 L 181.600 244.000 179.600 244.000 L 177.600 244.000 177.600 225.680 C 177.600 205.604,177.498 206.400,180.070 206.400 L 181.579 206.400 181.690 212.500 M285.700 210.557 C 286.344 211.045,286.400 212.233,286.400 225.277 L 286.400 239.465 285.400 240.000 C 284.565 240.447,284.235 240.447,283.400 240.000 L 282.400 239.465 282.400 225.277 C 282.400 210.082,282.407 210.025,284.400 210.025 C 284.730 210.025,285.315 210.265,285.700 210.557 M56.090 216.900 L 56.200 223.400 57.511 223.340 C 59.867 223.232,60.000 222.883,60.000 216.831 C 60.000 210.716,59.878 210.400,57.510 210.400 L 55.980 210.400 56.090 216.900 M253.120 211.280 C 253.917 212.077,253.779 222.246,252.967 222.557 C 250.846 223.371,250.800 223.250,250.800 216.800 C 250.800 210.475,251.248 209.408,253.120 211.280 M56.267 227.067 C 56.120 227.213,56.000 230.183,56.000 233.667 L 56.000 240.000 57.520 240.000 C 59.878 240.000,60.000 239.682,60.000 233.543 C 60.000 228.315,59.956 228.015,59.111 227.423 C 58.194 226.780,56.736 226.598,56.267 227.067 M252.967 227.843 C 253.500 228.047,253.600 228.922,253.600 233.394 C 253.600 239.026,253.503 239.330,251.600 239.672 L 250.600 239.852 250.720 233.726 C 250.848 227.162,250.892 227.046,252.967 227.843 M389.293 260.800 C 389.293 261.570,389.375 261.885,389.476 261.500 C 389.576 261.115,389.576 260.485,389.476 260.100 C 389.375 259.715,389.293 260.030,389.293 260.800 M388.093 288.800 C 388.093 289.570,388.175 289.885,388.276 289.500 C 388.376 289.115,388.376 288.485,388.276 288.100 C 388.175 287.715,388.093 288.030,388.093 288.800 M390.700 300.631 C 390.535 300.797,390.400 301.299,390.400 301.747 C 390.400 302.335,390.521 302.439,390.838 302.122 C 391.078 301.882,391.213 301.380,391.138 301.007 C 391.062 300.633,390.865 300.464,390.700 300.631 M387.701 302.600 C 387.705 303.480,387.787 303.793,387.883 303.295 C 387.979 302.798,387.975 302.078,387.875 301.695 C 387.775 301.313,387.696 301.720,387.701 302.600 M191.600 307.576 C 191.600 308.003,191.780 308.464,192.000 308.600 C 192.227 308.740,192.400 308.404,192.400 307.824 C 192.400 307.261,192.220 306.800,192.000 306.800 C 191.780 306.800,191.600 307.149,191.600 307.576 M194.893 309.200 C 194.893 309.970,194.975 310.285,195.076 309.900 C 195.176 309.515,195.176 308.885,195.076 308.500 C 194.975 308.115,194.893 308.430,194.893 309.200 M193.200 357.553 C 193.200 357.993,193.380 358.464,193.600 358.600 C 193.820 358.736,194.000 358.487,194.000 358.047 C 194.000 357.607,193.820 357.136,193.600 357.000 C 193.380 356.864,193.200 357.113,193.200 357.553 M195.019 406.900 C 194.852 407.285,194.852 407.915,195.019 408.300 C 195.309 408.967,195.332 408.967,195.491 408.300 C 195.774 407.119,195.403 406.019,195.019 406.900 " stroke="none" fill="#fbfbfb" fill-rule="evenodd"></path></g></svg>