<?xml version="1.0" encoding="UTF-8"?>
<svg xmlns="http://www.w3.org/2000/svg" width="48" height="48">
<defs>
<radialGradient id="a" gradientUnits="userSpaceOnUse" cy="41.4" cx="24.29" gradientTransform="matrix(1 0 0 .3526 0 26.8)" r="21">
<stop offset="0"/>
<stop stop-opacity="0" offset="1"/>
</radialGradient>
</defs>
<ellipse opacity=".41" rx="21.1" ry="7.44" cy="41.4" cx="24.29" fill="url(#a)"/>
<circle cy="21.4" cx="24.3" r="21.27" fill="#600"/>
<circle r="20" cy="21.31" stroke="#e33" cx="24.44" fill="#c00"/>
<g fill="#fff">
<path d="m43.68 20.48c0 10.83-6.1-4.31-18.67 0.39-12.73 4.72-20.58 10.44-20.58-0.39s8.8-19.62 19.63-19.62 19.62 8.79 19.62 19.62" fill-opacity=".21"/>
<path d="m21.7 27.6c-.07.001-.13.08-.13.16v5.49c0 .09.06.15.14.16h5.19c.08 0 .15-.07.15-.16v-5.49c0-.09-.06-.16-.15-.16h-5.19c0 0-.001 0-.001 0m10.32-11.9c0-2-.63-3.55-1.9-4.6-1.26-1.06-3.08-1.57-5.43-1.57-.9 0-1.83.1-2.8.31-.97.21-2.03.53-3.19.96-.06.02-.1.08-.1.15v4.84c0 .12.13.2.22.13.97-.67 1.9-1.18 2.79-1.52.89-.34 1.71-.51 2.47-.51.8 0 1.4.2 1.83.58.43.37.64.88.64 1.56 0 .44-.12.89-.37 1.34-.24.45-.63.95-1.16 1.47l-.92.89c-1.02 1.01-1.7 1.85-2.03 2.54-.33.67-.49 1.45-.49 2.31v.76c0 .09.06.15.14.16h5.19c.08 0 .15-.07.15-.16v-.69c0-.44.09-.83.28-1.19.19-.36.6-.87 1.25-1.5l.92-.88c.91-.93 1.56-1.79 1.94-2.61.38-.83.58-1.76.58-2.79"/>
</g>
</svg>